<mxfile host="app.diagrams.net" agent="Mozilla/5.0 (Macintosh; Intel Mac OS X 10_15_7) AppleWebKit/537.36 (KHTML, like Gecko) Chrome/129.0.0.0 Safari/537.36" version="24.7.17">
  <diagram name="第 1 页" id="n4BhP9zj2BLXmroLL63H">
    <mxGraphModel dx="2764" dy="888" grid="1" gridSize="10" guides="1" tooltips="1" connect="1" arrows="1" fold="1" page="1" pageScale="1" pageWidth="1169" pageHeight="827" math="0" shadow="0">
      <root>
        <mxCell id="0" />
        <mxCell id="1" parent="0" />
        <mxCell id="V2eXVLYHtB6FcR149Pm0-15" value="" style="rounded=1;whiteSpace=wrap;html=1;dashed=1;" parent="1" vertex="1">
          <mxGeometry x="-1030" y="320" width="626" height="52" as="geometry" />
        </mxCell>
        <mxCell id="jRNUs59h5QSE2_opnb7j-113" value="" style="rounded=0;whiteSpace=wrap;html=1;dashed=1;" parent="1" vertex="1">
          <mxGeometry x="-1080" y="140" width="670" height="53" as="geometry" />
        </mxCell>
        <mxCell id="V2eXVLYHtB6FcR149Pm0-16" style="edgeStyle=orthogonalEdgeStyle;rounded=0;orthogonalLoop=1;jettySize=auto;html=1;entryX=0;entryY=0.5;entryDx=0;entryDy=0;" parent="1" source="jRNUs59h5QSE2_opnb7j-55" target="V2eXVLYHtB6FcR149Pm0-15" edge="1">
          <mxGeometry relative="1" as="geometry">
            <Array as="points">
              <mxPoint x="-1154" y="515" />
              <mxPoint x="-1154" y="346" />
            </Array>
          </mxGeometry>
        </mxCell>
        <mxCell id="jRNUs59h5QSE2_opnb7j-55" value="" style="rounded=1;whiteSpace=wrap;html=1;dashed=1;" parent="1" vertex="1">
          <mxGeometry x="-914" y="490" width="560" height="50" as="geometry" />
        </mxCell>
        <mxCell id="jRNUs59h5QSE2_opnb7j-45" value="" style="rounded=0;whiteSpace=wrap;html=1;dashed=1;" parent="1" vertex="1">
          <mxGeometry x="-1094" y="384" width="690" height="52" as="geometry" />
        </mxCell>
        <mxCell id="jRNUs59h5QSE2_opnb7j-42" value="" style="rounded=0;whiteSpace=wrap;html=1;dashed=1;" parent="1" vertex="1">
          <mxGeometry x="-400" y="381" width="420" height="53.5" as="geometry" />
        </mxCell>
        <mxCell id="eApFAiqovPUqgppiBiww-42" style="edgeStyle=orthogonalEdgeStyle;shape=connector;rounded=0;orthogonalLoop=1;jettySize=auto;html=1;exitX=0.5;exitY=0;exitDx=0;exitDy=0;strokeColor=default;align=center;verticalAlign=middle;fontFamily=Helvetica;fontSize=11;fontColor=default;labelBackgroundColor=default;endArrow=classic;" edge="1" parent="1" source="jRNUs59h5QSE2_opnb7j-1" target="jRNUs59h5QSE2_opnb7j-6">
          <mxGeometry relative="1" as="geometry" />
        </mxCell>
        <mxCell id="jRNUs59h5QSE2_opnb7j-1" value="&lt;div style=&quot;background-color: rgb(255, 255, 255); font-family: &amp;quot;Fira Code&amp;quot;, Menlo, Monaco, &amp;quot;Courier New&amp;quot;, monospace; font-size: 14px; line-height: 21px; white-space: pre;&quot;&gt;fans_input&lt;/div&gt;" style="rounded=0;whiteSpace=wrap;html=1;" parent="1" vertex="1">
          <mxGeometry x="-117.49666666666667" y="471" width="118" height="35" as="geometry" />
        </mxCell>
        <mxCell id="jRNUs59h5QSE2_opnb7j-13" style="edgeStyle=orthogonalEdgeStyle;rounded=0;orthogonalLoop=1;jettySize=auto;html=1;exitX=0.5;exitY=0;exitDx=0;exitDy=0;" parent="1" source="jRNUs59h5QSE2_opnb7j-2" target="jRNUs59h5QSE2_opnb7j-1" edge="1">
          <mxGeometry relative="1" as="geometry" />
        </mxCell>
        <mxCell id="jRNUs59h5QSE2_opnb7j-2" value="&lt;div style=&quot;background-color: rgb(255, 255, 255); font-family: &amp;quot;Fira Code&amp;quot;, Menlo, Monaco, &amp;quot;Courier New&amp;quot;, monospace; font-size: 14px; line-height: 21px; white-space: pre;&quot;&gt;&lt;div style=&quot;line-height: 21px;&quot;&gt;user_att_input&lt;/div&gt;&lt;/div&gt;" style="rounded=0;whiteSpace=wrap;html=1;" parent="1" vertex="1">
          <mxGeometry x="-190.5" y="554" width="126" height="35" as="geometry" />
        </mxCell>
        <mxCell id="jRNUs59h5QSE2_opnb7j-14" style="edgeStyle=orthogonalEdgeStyle;rounded=0;orthogonalLoop=1;jettySize=auto;html=1;exitX=0.5;exitY=0;exitDx=0;exitDy=0;" parent="1" source="jRNUs59h5QSE2_opnb7j-4" target="jRNUs59h5QSE2_opnb7j-1" edge="1">
          <mxGeometry relative="1" as="geometry" />
        </mxCell>
        <mxCell id="eApFAiqovPUqgppiBiww-40" value="&lt;div style=&quot;font-family: &amp;quot;Fira Code&amp;quot;, Menlo, Monaco, &amp;quot;Courier New&amp;quot;, monospace; line-height: 21px; white-space-collapse: preserve;&quot;&gt;&lt;font style=&quot;font-size: 10px;&quot;&gt;concat()&lt;/font&gt;&lt;/div&gt;" style="edgeLabel;html=1;align=center;verticalAlign=middle;resizable=0;points=[];fontFamily=Helvetica;fontSize=11;fontColor=default;labelBackgroundColor=default;" vertex="1" connectable="0" parent="jRNUs59h5QSE2_opnb7j-14">
          <mxGeometry x="0.0372" y="-2" relative="1" as="geometry">
            <mxPoint x="-7" y="-10" as="offset" />
          </mxGeometry>
        </mxCell>
        <mxCell id="jRNUs59h5QSE2_opnb7j-4" value="&lt;div style=&quot;background-color: rgb(255, 255, 255); font-family: &amp;quot;Fira Code&amp;quot;, Menlo, Monaco, &amp;quot;Courier New&amp;quot;, monospace; font-size: 14px; line-height: 21px; white-space: pre;&quot;&gt;&lt;div style=&quot;line-height: 21px;&quot;&gt;&lt;div style=&quot;line-height: 21px;&quot;&gt;seeds_att_input&lt;/div&gt;&lt;/div&gt;&lt;/div&gt;" style="rounded=0;whiteSpace=wrap;html=1;" parent="1" vertex="1">
          <mxGeometry x="-35.83333333333337" y="554" width="126" height="35" as="geometry" />
        </mxCell>
        <mxCell id="jRNUs59h5QSE2_opnb7j-6" value="&lt;div style=&quot;background-color: rgb(255, 255, 255); font-family: &amp;quot;Fira Code&amp;quot;, Menlo, Monaco, &amp;quot;Courier New&amp;quot;, monospace; font-size: 14px; line-height: 21px; white-space: pre;&quot;&gt;&lt;div style=&quot;line-height: 21px;&quot;&gt;fans_expert&lt;/div&gt;&lt;/div&gt;" style="rounded=0;whiteSpace=wrap;html=1;" parent="1" vertex="1">
          <mxGeometry x="-117.66666666666674" y="392" width="118" height="35" as="geometry" />
        </mxCell>
        <mxCell id="eApFAiqovPUqgppiBiww-45" style="edgeStyle=orthogonalEdgeStyle;shape=connector;rounded=0;orthogonalLoop=1;jettySize=auto;html=1;strokeColor=default;align=center;verticalAlign=middle;fontFamily=Helvetica;fontSize=11;fontColor=default;labelBackgroundColor=default;endArrow=none;exitX=0.5;exitY=0;exitDx=0;exitDy=0;endFill=0;" edge="1" parent="1">
          <mxGeometry relative="1" as="geometry">
            <mxPoint x="-445.8205128205127" y="460" as="targetPoint" />
            <mxPoint x="-445.99666666666667" y="498" as="sourcePoint" />
          </mxGeometry>
        </mxCell>
        <mxCell id="jRNUs59h5QSE2_opnb7j-12" value="&lt;div style=&quot;background-color: rgb(255, 255, 255); font-family: &amp;quot;Fira Code&amp;quot;, Menlo, Monaco, &amp;quot;Courier New&amp;quot;, monospace; font-size: 14px; line-height: 21px; white-space: pre;&quot;&gt;&lt;div style=&quot;line-height: 21px;&quot;&gt;expert_input&lt;/div&gt;&lt;/div&gt;" style="rounded=0;whiteSpace=wrap;html=1;" parent="1" vertex="1">
          <mxGeometry x="-518.4966666666667" y="498" width="145" height="35" as="geometry" />
        </mxCell>
        <mxCell id="jRNUs59h5QSE2_opnb7j-18" style="edgeStyle=orthogonalEdgeStyle;rounded=0;orthogonalLoop=1;jettySize=auto;html=1;exitX=0.5;exitY=0;exitDx=0;exitDy=0;entryX=0.5;entryY=1;entryDx=0;entryDy=0;" parent="1" source="jRNUs59h5QSE2_opnb7j-16" edge="1">
          <mxGeometry relative="1" as="geometry">
            <Array as="points">
              <mxPoint x="-526" y="581" />
              <mxPoint x="-526" y="565" />
              <mxPoint x="-446" y="565" />
            </Array>
            <mxPoint x="-446" y="529" as="targetPoint" />
          </mxGeometry>
        </mxCell>
        <mxCell id="jRNUs59h5QSE2_opnb7j-16" value="&lt;div style=&quot;background-color: rgb(255, 255, 255); font-family: &amp;quot;Fira Code&amp;quot;, Menlo, Monaco, &amp;quot;Courier New&amp;quot;, monospace; font-size: 14px; line-height: 21px; white-space: pre;&quot;&gt;&lt;div style=&quot;line-height: 21px;&quot;&gt;&lt;div style=&quot;line-height: 21px;&quot;&gt;bucket_slot&lt;/div&gt;&lt;div style=&quot;line-height: 21px;&quot;&gt;用户-主播 分桶&lt;/div&gt;&lt;/div&gt;&lt;/div&gt;" style="rounded=0;whiteSpace=wrap;html=1;" parent="1" vertex="1">
          <mxGeometry x="-610" y="581" width="145" height="51" as="geometry" />
        </mxCell>
        <mxCell id="jRNUs59h5QSE2_opnb7j-19" style="edgeStyle=orthogonalEdgeStyle;rounded=0;orthogonalLoop=1;jettySize=auto;html=1;exitX=0.5;exitY=0;exitDx=0;exitDy=0;entryX=0.5;entryY=1;entryDx=0;entryDy=0;" parent="1" source="jRNUs59h5QSE2_opnb7j-17" edge="1">
          <mxGeometry relative="1" as="geometry">
            <Array as="points">
              <mxPoint x="-365" y="589" />
              <mxPoint x="-365" y="565" />
              <mxPoint x="-446" y="565" />
            </Array>
            <mxPoint x="-446" y="529" as="targetPoint" />
          </mxGeometry>
        </mxCell>
        <mxCell id="eApFAiqovPUqgppiBiww-44" value="&lt;span style=&quot;font-family: &amp;quot;Fira Code&amp;quot;, Menlo, Monaco, &amp;quot;Courier New&amp;quot;, monospace; white-space-collapse: preserve;&quot;&gt;&lt;font style=&quot;font-size: 10px;&quot;&gt;spread_tower()&lt;/font&gt;&lt;/span&gt;" style="edgeLabel;html=1;align=center;verticalAlign=middle;resizable=0;points=[];fontFamily=Helvetica;fontSize=11;fontColor=default;labelBackgroundColor=default;" vertex="1" connectable="0" parent="jRNUs59h5QSE2_opnb7j-19">
          <mxGeometry x="0.0055" relative="1" as="geometry">
            <mxPoint x="-38" y="-15" as="offset" />
          </mxGeometry>
        </mxCell>
        <mxCell id="jRNUs59h5QSE2_opnb7j-17" value="&lt;div style=&quot;background-color: rgb(255, 255, 255); font-family: &amp;quot;Fira Code&amp;quot;, Menlo, Monaco, &amp;quot;Courier New&amp;quot;, monospace; font-size: 14px; line-height: 21px; white-space: pre;&quot;&gt;&lt;div style=&quot;line-height: 21px;&quot;&gt;&lt;div style=&quot;line-height: 21px;&quot;&gt;&lt;div style=&quot;line-height: 21px;&quot;&gt;&lt;div style=&quot;line-height: 21px;&quot;&gt;bias_slots&lt;/div&gt;&lt;/div&gt;&lt;/div&gt;&lt;/div&gt;&lt;/div&gt;" style="rounded=0;whiteSpace=wrap;html=1;" parent="1" vertex="1">
          <mxGeometry x="-450" y="589" width="145" height="35" as="geometry" />
        </mxCell>
        <mxCell id="jRNUs59h5QSE2_opnb7j-41" style="edgeStyle=orthogonalEdgeStyle;rounded=0;orthogonalLoop=1;jettySize=auto;html=1;exitX=0.5;exitY=0;exitDx=0;exitDy=0;" parent="1" target="jRNUs59h5QSE2_opnb7j-31" edge="1">
          <mxGeometry relative="1" as="geometry">
            <Array as="points">
              <mxPoint x="-445" y="455" />
              <mxPoint x="-320" y="455" />
            </Array>
            <mxPoint x="-445.5" y="471" as="sourcePoint" />
          </mxGeometry>
        </mxCell>
        <mxCell id="jRNUs59h5QSE2_opnb7j-49" style="edgeStyle=orthogonalEdgeStyle;rounded=0;orthogonalLoop=1;jettySize=auto;html=1;exitX=0.5;exitY=0;exitDx=0;exitDy=0;entryX=0.5;entryY=1;entryDx=0;entryDy=0;" parent="1" target="jRNUs59h5QSE2_opnb7j-33" edge="1">
          <mxGeometry relative="1" as="geometry">
            <Array as="points">
              <mxPoint x="-445" y="455" />
              <mxPoint x="-487" y="455" />
            </Array>
            <mxPoint x="-445.5" y="471" as="sourcePoint" />
          </mxGeometry>
        </mxCell>
        <mxCell id="jRNUs59h5QSE2_opnb7j-50" style="edgeStyle=orthogonalEdgeStyle;rounded=0;orthogonalLoop=1;jettySize=auto;html=1;exitX=0.5;exitY=0;exitDx=0;exitDy=0;entryX=0.5;entryY=1;entryDx=0;entryDy=0;" parent="1" target="jRNUs59h5QSE2_opnb7j-28" edge="1">
          <mxGeometry relative="1" as="geometry">
            <Array as="points">
              <mxPoint x="-445" y="455" />
              <mxPoint x="-644" y="455" />
            </Array>
            <mxPoint x="-445.5" y="471" as="sourcePoint" />
          </mxGeometry>
        </mxCell>
        <mxCell id="jRNUs59h5QSE2_opnb7j-51" style="edgeStyle=orthogonalEdgeStyle;rounded=0;orthogonalLoop=1;jettySize=auto;html=1;exitX=0.5;exitY=0;exitDx=0;exitDy=0;entryX=0.5;entryY=1;entryDx=0;entryDy=0;" parent="1" target="jRNUs59h5QSE2_opnb7j-32" edge="1">
          <mxGeometry relative="1" as="geometry">
            <Array as="points">
              <mxPoint x="-445" y="455" />
              <mxPoint x="-799" y="455" />
            </Array>
            <mxPoint x="-445.5" y="471" as="sourcePoint" />
          </mxGeometry>
        </mxCell>
        <mxCell id="jRNUs59h5QSE2_opnb7j-52" style="edgeStyle=orthogonalEdgeStyle;rounded=0;orthogonalLoop=1;jettySize=auto;html=1;entryX=0.5;entryY=1;entryDx=0;entryDy=0;exitX=0.5;exitY=0;exitDx=0;exitDy=0;endArrow=classic;endFill=1;" parent="1" target="jRNUs59h5QSE2_opnb7j-23" edge="1">
          <mxGeometry relative="1" as="geometry">
            <mxPoint x="-445.5" y="471" as="sourcePoint" />
            <mxPoint x="-954.4966666666669" y="426" as="targetPoint" />
            <Array as="points">
              <mxPoint x="-445" y="455" />
              <mxPoint x="-956" y="455" />
              <mxPoint x="-956" y="430" />
              <mxPoint x="-955" y="430" />
            </Array>
          </mxGeometry>
        </mxCell>
        <mxCell id="V2eXVLYHtB6FcR149Pm0-4" style="edgeStyle=orthogonalEdgeStyle;rounded=0;orthogonalLoop=1;jettySize=auto;html=1;exitX=0.5;exitY=0;exitDx=0;exitDy=0;entryX=0.5;entryY=1;entryDx=0;entryDy=0;" parent="1" source="jRNUs59h5QSE2_opnb7j-23" target="V2eXVLYHtB6FcR149Pm0-3" edge="1">
          <mxGeometry relative="1" as="geometry" />
        </mxCell>
        <mxCell id="jRNUs59h5QSE2_opnb7j-23" value="&lt;div style=&quot;background-color: rgb(255, 255, 255); font-family: &amp;quot;Fira Code&amp;quot;, Menlo, Monaco, &amp;quot;Courier New&amp;quot;, monospace; font-size: 14px; line-height: 21px; white-space: pre;&quot;&gt;&lt;div style=&quot;line-height: 21px;&quot;&gt;&lt;div style=&quot;line-height: 21px;&quot;&gt;&lt;div style=&quot;line-height: 21px;&quot;&gt;dura_3_expert&lt;/div&gt;&lt;/div&gt;&lt;/div&gt;&lt;/div&gt;" style="rounded=0;whiteSpace=wrap;html=1;" parent="1" vertex="1">
          <mxGeometry x="-1027.9966666666667" y="390" width="145" height="35" as="geometry" />
        </mxCell>
        <mxCell id="V2eXVLYHtB6FcR149Pm0-14" style="edgeStyle=orthogonalEdgeStyle;rounded=0;orthogonalLoop=1;jettySize=auto;html=1;exitX=0.5;exitY=0;exitDx=0;exitDy=0;entryX=0.5;entryY=1;entryDx=0;entryDy=0;" parent="1" source="jRNUs59h5QSE2_opnb7j-28" target="V2eXVLYHtB6FcR149Pm0-9" edge="1">
          <mxGeometry relative="1" as="geometry" />
        </mxCell>
        <mxCell id="jRNUs59h5QSE2_opnb7j-28" value="&lt;div style=&quot;background-color: rgb(255, 255, 255); font-family: &amp;quot;Fira Code&amp;quot;, Menlo, Monaco, &amp;quot;Courier New&amp;quot;, monospace; font-size: 14px; line-height: 21px; white-space: pre;&quot;&gt;&lt;div style=&quot;line-height: 21px;&quot;&gt;&lt;div style=&quot;line-height: 21px;&quot;&gt;&lt;div style=&quot;line-height: 21px;&quot;&gt;dura_30_expert&lt;/div&gt;&lt;/div&gt;&lt;/div&gt;&lt;/div&gt;" style="rounded=0;whiteSpace=wrap;html=1;" parent="1" vertex="1">
          <mxGeometry x="-716.9966666666667" y="391" width="145" height="35" as="geometry" />
        </mxCell>
        <mxCell id="jRNUs59h5QSE2_opnb7j-31" value="&lt;div style=&quot;background-color: rgb(255, 255, 255); font-family: &amp;quot;Fira Code&amp;quot;, Menlo, Monaco, &amp;quot;Courier New&amp;quot;, monospace; font-size: 14px; line-height: 21px; white-space: pre;&quot;&gt;&lt;div style=&quot;line-height: 21px;&quot;&gt;&lt;div style=&quot;line-height: 21px;&quot;&gt;share_expert1&lt;/div&gt;&lt;/div&gt;&lt;/div&gt;" style="rounded=0;whiteSpace=wrap;html=1;" parent="1" vertex="1">
          <mxGeometry x="-392.99666666666667" y="391" width="118" height="35" as="geometry" />
        </mxCell>
        <mxCell id="V2eXVLYHtB6FcR149Pm0-7" style="edgeStyle=orthogonalEdgeStyle;rounded=0;orthogonalLoop=1;jettySize=auto;html=1;exitX=0.5;exitY=0;exitDx=0;exitDy=0;entryX=0.5;entryY=1;entryDx=0;entryDy=0;" parent="1" source="jRNUs59h5QSE2_opnb7j-32" target="V2eXVLYHtB6FcR149Pm0-6" edge="1">
          <mxGeometry relative="1" as="geometry" />
        </mxCell>
        <mxCell id="jRNUs59h5QSE2_opnb7j-32" value="&lt;div style=&quot;background-color: rgb(255, 255, 255); font-family: &amp;quot;Fira Code&amp;quot;, Menlo, Monaco, &amp;quot;Courier New&amp;quot;, monospace; font-size: 14px; line-height: 21px; white-space: pre;&quot;&gt;&lt;div style=&quot;line-height: 21px;&quot;&gt;&lt;div style=&quot;line-height: 21px;&quot;&gt;&lt;div style=&quot;line-height: 21px;&quot;&gt;&lt;div style=&quot;line-height: 21px;&quot;&gt;ctr_expert&lt;br&gt;&lt;/div&gt;&lt;/div&gt;&lt;/div&gt;&lt;/div&gt;&lt;/div&gt;" style="rounded=0;whiteSpace=wrap;html=1;" parent="1" vertex="1">
          <mxGeometry x="-871.9966666666667" y="391" width="145" height="35" as="geometry" />
        </mxCell>
        <mxCell id="V2eXVLYHtB6FcR149Pm0-11" style="edgeStyle=orthogonalEdgeStyle;rounded=0;orthogonalLoop=1;jettySize=auto;html=1;exitX=0.5;exitY=0;exitDx=0;exitDy=0;entryX=0.5;entryY=1;entryDx=0;entryDy=0;" parent="1" source="jRNUs59h5QSE2_opnb7j-33" target="V2eXVLYHtB6FcR149Pm0-10" edge="1">
          <mxGeometry relative="1" as="geometry" />
        </mxCell>
        <mxCell id="jRNUs59h5QSE2_opnb7j-33" value="&lt;div style=&quot;background-color: rgb(255, 255, 255); font-family: &amp;quot;Fira Code&amp;quot;, Menlo, Monaco, &amp;quot;Courier New&amp;quot;, monospace; font-size: 14px; line-height: 21px; white-space: pre;&quot;&gt;&lt;div style=&quot;line-height: 21px;&quot;&gt;&lt;div style=&quot;line-height: 21px;&quot;&gt;&lt;div style=&quot;line-height: 21px;&quot;&gt;&lt;div style=&quot;line-height: 21px;&quot;&gt;&lt;div style=&quot;line-height: 21px;&quot;&gt;conv_expert&lt;/div&gt;&lt;/div&gt;&lt;/div&gt;&lt;/div&gt;&lt;/div&gt;&lt;/div&gt;" style="rounded=0;whiteSpace=wrap;html=1;" parent="1" vertex="1">
          <mxGeometry x="-559.9966666666667" y="391" width="145" height="35" as="geometry" />
        </mxCell>
        <mxCell id="jRNUs59h5QSE2_opnb7j-34" value="&lt;div style=&quot;background-color: rgb(255, 255, 255); font-family: &amp;quot;Fira Code&amp;quot;, Menlo, Monaco, &amp;quot;Courier New&amp;quot;, monospace; font-size: 14px; line-height: 21px; white-space: pre;&quot;&gt;&lt;div style=&quot;line-height: 21px;&quot;&gt;&lt;div style=&quot;line-height: 21px;&quot;&gt;entrance_expert&lt;/div&gt;&lt;/div&gt;&lt;/div&gt;" style="rounded=0;whiteSpace=wrap;html=1;" parent="1" vertex="1">
          <mxGeometry x="-258.99666666666667" y="392" width="126" height="35" as="geometry" />
        </mxCell>
        <mxCell id="jRNUs59h5QSE2_opnb7j-39" style="edgeStyle=orthogonalEdgeStyle;rounded=0;orthogonalLoop=1;jettySize=auto;html=1;exitX=0.5;exitY=0;exitDx=0;exitDy=0;entryX=0.5;entryY=1;entryDx=0;entryDy=0;" parent="1" source="jRNUs59h5QSE2_opnb7j-37" edge="1">
          <mxGeometry relative="1" as="geometry">
            <mxPoint x="-195" y="427" as="targetPoint" />
          </mxGeometry>
        </mxCell>
        <mxCell id="eApFAiqovPUqgppiBiww-41" value="&lt;span style=&quot;font-family: &amp;quot;Fira Code&amp;quot;, Menlo, Monaco, &amp;quot;Courier New&amp;quot;, monospace; white-space-collapse: preserve;&quot;&gt;&lt;font style=&quot;font-size: 10px;&quot;&gt;deep_net()&lt;/font&gt;&lt;/span&gt;" style="edgeLabel;html=1;align=center;verticalAlign=middle;resizable=0;points=[];fontFamily=Helvetica;fontSize=11;fontColor=default;labelBackgroundColor=default;" vertex="1" connectable="0" parent="jRNUs59h5QSE2_opnb7j-39">
          <mxGeometry x="0.1284" y="-1" relative="1" as="geometry">
            <mxPoint y="6" as="offset" />
          </mxGeometry>
        </mxCell>
        <mxCell id="jRNUs59h5QSE2_opnb7j-37" value="&lt;div style=&quot;background-color: rgb(255, 255, 255); font-family: &amp;quot;Fira Code&amp;quot;, Menlo, Monaco, &amp;quot;Courier New&amp;quot;, monospace; font-size: 14px; line-height: 21px; white-space: pre;&quot;&gt;&lt;div style=&quot;line-height: 21px;&quot;&gt;entrance_input&lt;/div&gt;&lt;/div&gt;" style="rounded=0;whiteSpace=wrap;html=1;" parent="1" vertex="1">
          <mxGeometry x="-256.99666666666667" y="470" width="126" height="35" as="geometry" />
        </mxCell>
        <mxCell id="V2eXVLYHtB6FcR149Pm0-17" style="edgeStyle=orthogonalEdgeStyle;rounded=0;orthogonalLoop=1;jettySize=auto;html=1;entryX=1;entryY=0.5;entryDx=0;entryDy=0;" parent="1" source="jRNUs59h5QSE2_opnb7j-44" target="V2eXVLYHtB6FcR149Pm0-15" edge="1">
          <mxGeometry relative="1" as="geometry">
            <Array as="points">
              <mxPoint x="-147" y="346" />
            </Array>
          </mxGeometry>
        </mxCell>
        <mxCell id="jRNUs59h5QSE2_opnb7j-44" value="&lt;div style=&quot;background-color: rgb(255, 255, 255); font-family: &amp;quot;Fira Code&amp;quot;, Menlo, Monaco, &amp;quot;Courier New&amp;quot;, monospace; font-size: 14px; line-height: 21px; white-space-collapse: preserve;&quot;&gt;share_experts&lt;/div&gt;" style="text;html=1;align=center;verticalAlign=middle;resizable=0;points=[];autosize=1;strokeColor=none;fillColor=none;fontColor=#0000FF;" parent="1" vertex="1">
          <mxGeometry x="-212.0000000000001" y="362" width="130" height="30" as="geometry" />
        </mxCell>
        <mxCell id="jRNUs59h5QSE2_opnb7j-46" value="&lt;div style=&quot;background-color: rgb(255, 255, 255); font-family: &amp;quot;Fira Code&amp;quot;, Menlo, Monaco, &amp;quot;Courier New&amp;quot;, monospace; font-weight: normal; font-size: 14px; line-height: 21px; white-space: pre;&quot;&gt;&lt;div style=&quot;&quot;&gt;&lt;font color=&quot;#999900&quot;&gt;target_experts&lt;/font&gt;&lt;/div&gt;&lt;/div&gt;" style="text;whiteSpace=wrap;html=1;align=center;" parent="1" vertex="1">
          <mxGeometry x="-1165.5" y="391" width="150" height="40" as="geometry" />
        </mxCell>
        <mxCell id="jRNUs59h5QSE2_opnb7j-47" value="&lt;div style=&quot;background-color: rgb(255, 255, 255); font-family: &amp;quot;Fira Code&amp;quot;, Menlo, Monaco, &amp;quot;Courier New&amp;quot;, monospace; font-size: 14px; line-height: 21px; white-space: pre;&quot;&gt;&lt;div style=&quot;line-height: 21px;&quot;&gt;&lt;div style=&quot;line-height: 21px;&quot;&gt;&lt;div style=&quot;line-height: 21px;&quot;&gt;user_emb_reshape&lt;/div&gt;&lt;/div&gt;&lt;/div&gt;&lt;/div&gt;" style="rounded=0;whiteSpace=wrap;html=1;" parent="1" vertex="1">
          <mxGeometry x="-465" y="733" width="145" height="35" as="geometry" />
        </mxCell>
        <mxCell id="jRNUs59h5QSE2_opnb7j-53" value="&lt;div style=&quot;background-color: rgb(255, 255, 255); font-family: &amp;quot;Fira Code&amp;quot;, Menlo, Monaco, &amp;quot;Courier New&amp;quot;, monospace; font-size: 14px; line-height: 21px; white-space: pre;&quot;&gt;&lt;div style=&quot;line-height: 21px;&quot;&gt;&lt;div style=&quot;line-height: 21px;&quot;&gt;&lt;div style=&quot;line-height: 21px;&quot;&gt;&lt;div style=&quot;line-height: 21px;&quot;&gt;seeds_emb_avg&lt;/div&gt;&lt;/div&gt;&lt;/div&gt;&lt;/div&gt;&lt;/div&gt;" style="rounded=0;whiteSpace=wrap;html=1;" parent="1" vertex="1">
          <mxGeometry x="-679" y="498" width="145" height="35" as="geometry" />
        </mxCell>
        <mxCell id="jRNUs59h5QSE2_opnb7j-56" value="&lt;div style=&quot;background-color: rgb(255, 255, 255); font-family: &amp;quot;Fira Code&amp;quot;, Menlo, Monaco, &amp;quot;Courier New&amp;quot;, monospace; font-weight: normal; font-size: 14px; line-height: 21px; white-space: pre;&quot;&gt;&lt;div style=&quot;&quot;&gt;&lt;font color=&quot;#00994d&quot;&gt;gate_input&lt;/font&gt;&lt;/div&gt;&lt;/div&gt;" style="text;whiteSpace=wrap;html=1;align=center;" parent="1" vertex="1">
          <mxGeometry x="-963" y="500" width="120" height="40" as="geometry" />
        </mxCell>
        <mxCell id="jRNUs59h5QSE2_opnb7j-85" style="edgeStyle=orthogonalEdgeStyle;rounded=0;orthogonalLoop=1;jettySize=auto;html=1;exitX=0.5;exitY=0;exitDx=0;exitDy=0;entryX=0.5;entryY=1;entryDx=0;entryDy=0;" parent="1" source="jRNUs59h5QSE2_opnb7j-68" target="jRNUs59h5QSE2_opnb7j-72" edge="1">
          <mxGeometry relative="1" as="geometry" />
        </mxCell>
        <mxCell id="jRNUs59h5QSE2_opnb7j-68" value="&lt;div style=&quot;background-color: rgb(255, 255, 255); font-family: &amp;quot;Fira Code&amp;quot;, Menlo, Monaco, &amp;quot;Courier New&amp;quot;, monospace; font-size: 14px; line-height: 21px; white-space: pre;&quot;&gt;&lt;div style=&quot;line-height: 21px;&quot;&gt;&lt;div style=&quot;line-height: 21px;&quot;&gt;&lt;div style=&quot;line-height: 21px;&quot;&gt;&lt;div style=&quot;line-height: 21px;&quot;&gt;tower_dura_3&lt;/div&gt;&lt;/div&gt;&lt;/div&gt;&lt;/div&gt;&lt;/div&gt;" style="rounded=0;whiteSpace=wrap;html=1;" parent="1" vertex="1">
          <mxGeometry x="-1028.0766666666668" y="255" width="145" height="35" as="geometry" />
        </mxCell>
        <mxCell id="jRNUs59h5QSE2_opnb7j-86" style="edgeStyle=orthogonalEdgeStyle;rounded=0;orthogonalLoop=1;jettySize=auto;html=1;exitX=0.5;exitY=0;exitDx=0;exitDy=0;entryX=0.5;entryY=1;entryDx=0;entryDy=0;" parent="1" source="jRNUs59h5QSE2_opnb7j-69" target="jRNUs59h5QSE2_opnb7j-73" edge="1">
          <mxGeometry relative="1" as="geometry" />
        </mxCell>
        <mxCell id="jRNUs59h5QSE2_opnb7j-69" value="&lt;div style=&quot;background-color: rgb(255, 255, 255); font-family: &amp;quot;Fira Code&amp;quot;, Menlo, Monaco, &amp;quot;Courier New&amp;quot;, monospace; font-size: 14px; line-height: 21px; white-space: pre;&quot;&gt;&lt;div style=&quot;line-height: 21px;&quot;&gt;&lt;div style=&quot;line-height: 21px;&quot;&gt;&lt;div style=&quot;line-height: 21px;&quot;&gt;&lt;div style=&quot;line-height: 21px;&quot;&gt;&lt;div style=&quot;line-height: 21px;&quot;&gt;tower_tower&lt;/div&gt;&lt;/div&gt;&lt;/div&gt;&lt;/div&gt;&lt;/div&gt;&lt;/div&gt;" style="rounded=0;whiteSpace=wrap;html=1;" parent="1" vertex="1">
          <mxGeometry x="-873.08" y="255" width="145" height="35" as="geometry" />
        </mxCell>
        <mxCell id="jRNUs59h5QSE2_opnb7j-87" style="edgeStyle=orthogonalEdgeStyle;rounded=0;orthogonalLoop=1;jettySize=auto;html=1;exitX=0.5;exitY=0;exitDx=0;exitDy=0;entryX=0.5;entryY=1;entryDx=0;entryDy=0;" parent="1" source="jRNUs59h5QSE2_opnb7j-70" target="jRNUs59h5QSE2_opnb7j-75" edge="1">
          <mxGeometry relative="1" as="geometry" />
        </mxCell>
        <mxCell id="jRNUs59h5QSE2_opnb7j-70" value="&lt;div style=&quot;background-color: rgb(255, 255, 255); font-family: &amp;quot;Fira Code&amp;quot;, Menlo, Monaco, &amp;quot;Courier New&amp;quot;, monospace; font-size: 14px; line-height: 21px; white-space: pre;&quot;&gt;&lt;div style=&quot;line-height: 21px;&quot;&gt;&lt;div style=&quot;line-height: 21px;&quot;&gt;&lt;div style=&quot;line-height: 21px;&quot;&gt;&lt;div style=&quot;line-height: 21px;&quot;&gt;&lt;div style=&quot;line-height: 21px;&quot;&gt;&lt;div style=&quot;line-height: 21px;&quot;&gt;tower_dura_30&lt;/div&gt;&lt;/div&gt;&lt;/div&gt;&lt;/div&gt;&lt;/div&gt;&lt;/div&gt;&lt;/div&gt;" style="rounded=0;whiteSpace=wrap;html=1;" parent="1" vertex="1">
          <mxGeometry x="-719.08" y="255" width="145" height="35" as="geometry" />
        </mxCell>
        <mxCell id="jRNUs59h5QSE2_opnb7j-88" style="edgeStyle=orthogonalEdgeStyle;rounded=0;orthogonalLoop=1;jettySize=auto;html=1;exitX=0.5;exitY=0;exitDx=0;exitDy=0;" parent="1" source="jRNUs59h5QSE2_opnb7j-71" target="jRNUs59h5QSE2_opnb7j-76" edge="1">
          <mxGeometry relative="1" as="geometry" />
        </mxCell>
        <mxCell id="jRNUs59h5QSE2_opnb7j-71" value="&lt;div style=&quot;background-color: rgb(255, 255, 255); font-family: &amp;quot;Fira Code&amp;quot;, Menlo, Monaco, &amp;quot;Courier New&amp;quot;, monospace; font-size: 14px; line-height: 21px; white-space: pre;&quot;&gt;&lt;div style=&quot;line-height: 21px;&quot;&gt;&lt;div style=&quot;line-height: 21px;&quot;&gt;&lt;div style=&quot;line-height: 21px;&quot;&gt;&lt;div style=&quot;line-height: 21px;&quot;&gt;&lt;div style=&quot;line-height: 21px;&quot;&gt;&lt;div style=&quot;line-height: 21px;&quot;&gt;&lt;div style=&quot;line-height: 21px;&quot;&gt;tower_conv&lt;/div&gt;&lt;/div&gt;&lt;/div&gt;&lt;/div&gt;&lt;/div&gt;&lt;/div&gt;&lt;/div&gt;&lt;/div&gt;" style="rounded=0;whiteSpace=wrap;html=1;" parent="1" vertex="1">
          <mxGeometry x="-561.9166666666667" y="255" width="145" height="35" as="geometry" />
        </mxCell>
        <mxCell id="jRNUs59h5QSE2_opnb7j-89" style="edgeStyle=orthogonalEdgeStyle;rounded=0;orthogonalLoop=1;jettySize=auto;html=1;exitX=0.5;exitY=0;exitDx=0;exitDy=0;entryX=0.5;entryY=1;entryDx=0;entryDy=0;" parent="1" source="jRNUs59h5QSE2_opnb7j-72" target="jRNUs59h5QSE2_opnb7j-77" edge="1">
          <mxGeometry relative="1" as="geometry" />
        </mxCell>
        <mxCell id="jRNUs59h5QSE2_opnb7j-72" value="&lt;div style=&quot;background-color: rgb(255, 255, 255); font-family: &amp;quot;Fira Code&amp;quot;, Menlo, Monaco, &amp;quot;Courier New&amp;quot;, monospace; font-size: 14px; line-height: 21px; white-space: pre;&quot;&gt;&lt;div style=&quot;line-height: 21px;&quot;&gt;&lt;div style=&quot;line-height: 21px;&quot;&gt;&lt;div style=&quot;line-height: 21px;&quot;&gt;&lt;div style=&quot;line-height: 21px;&quot;&gt;&lt;div style=&quot;line-height: 21px;&quot;&gt;&lt;div style=&quot;line-height: 21px;&quot;&gt;clip_dura_3&lt;/div&gt;&lt;/div&gt;&lt;/div&gt;&lt;/div&gt;&lt;/div&gt;&lt;/div&gt;&lt;/div&gt;" style="rounded=0;whiteSpace=wrap;html=1;" parent="1" vertex="1">
          <mxGeometry x="-1025.9966666666667" y="202" width="145" height="35" as="geometry" />
        </mxCell>
        <mxCell id="jRNUs59h5QSE2_opnb7j-90" style="edgeStyle=orthogonalEdgeStyle;rounded=0;orthogonalLoop=1;jettySize=auto;html=1;exitX=0.5;exitY=0;exitDx=0;exitDy=0;entryX=0.5;entryY=1;entryDx=0;entryDy=0;" parent="1" source="jRNUs59h5QSE2_opnb7j-73" target="jRNUs59h5QSE2_opnb7j-78" edge="1">
          <mxGeometry relative="1" as="geometry" />
        </mxCell>
        <mxCell id="jRNUs59h5QSE2_opnb7j-73" value="&lt;div style=&quot;background-color: rgb(255, 255, 255); font-family: &amp;quot;Fira Code&amp;quot;, Menlo, Monaco, &amp;quot;Courier New&amp;quot;, monospace; font-size: 14px; line-height: 21px; white-space: pre;&quot;&gt;&lt;div style=&quot;line-height: 21px;&quot;&gt;&lt;div style=&quot;line-height: 21px;&quot;&gt;&lt;div style=&quot;line-height: 21px;&quot;&gt;&lt;div style=&quot;line-height: 21px;&quot;&gt;&lt;div style=&quot;line-height: 21px;&quot;&gt;&lt;div style=&quot;line-height: 21px;&quot;&gt;clip_ctr&lt;/div&gt;&lt;/div&gt;&lt;/div&gt;&lt;/div&gt;&lt;/div&gt;&lt;/div&gt;&lt;/div&gt;" style="rounded=0;whiteSpace=wrap;html=1;" parent="1" vertex="1">
          <mxGeometry x="-873.08" y="202" width="145" height="35" as="geometry" />
        </mxCell>
        <mxCell id="jRNUs59h5QSE2_opnb7j-91" style="edgeStyle=orthogonalEdgeStyle;rounded=0;orthogonalLoop=1;jettySize=auto;html=1;exitX=0.5;exitY=0;exitDx=0;exitDy=0;entryX=0.5;entryY=1;entryDx=0;entryDy=0;" parent="1" source="jRNUs59h5QSE2_opnb7j-75" target="jRNUs59h5QSE2_opnb7j-79" edge="1">
          <mxGeometry relative="1" as="geometry" />
        </mxCell>
        <mxCell id="jRNUs59h5QSE2_opnb7j-75" value="&lt;div style=&quot;background-color: rgb(255, 255, 255); font-family: &amp;quot;Fira Code&amp;quot;, Menlo, Monaco, &amp;quot;Courier New&amp;quot;, monospace; font-size: 14px; line-height: 21px; white-space: pre;&quot;&gt;&lt;div style=&quot;line-height: 21px;&quot;&gt;&lt;div style=&quot;line-height: 21px;&quot;&gt;&lt;div style=&quot;line-height: 21px;&quot;&gt;&lt;div style=&quot;line-height: 21px;&quot;&gt;&lt;div style=&quot;line-height: 21px;&quot;&gt;&lt;div style=&quot;line-height: 21px;&quot;&gt;&lt;div style=&quot;line-height: 21px;&quot;&gt;clip_dura_30&lt;/div&gt;&lt;/div&gt;&lt;/div&gt;&lt;/div&gt;&lt;/div&gt;&lt;/div&gt;&lt;/div&gt;&lt;/div&gt;" style="rounded=0;whiteSpace=wrap;html=1;" parent="1" vertex="1">
          <mxGeometry x="-719.08" y="202" width="145" height="35" as="geometry" />
        </mxCell>
        <mxCell id="jRNUs59h5QSE2_opnb7j-92" style="edgeStyle=orthogonalEdgeStyle;rounded=0;orthogonalLoop=1;jettySize=auto;html=1;exitX=0.5;exitY=0;exitDx=0;exitDy=0;entryX=0.5;entryY=1;entryDx=0;entryDy=0;" parent="1" source="jRNUs59h5QSE2_opnb7j-76" target="jRNUs59h5QSE2_opnb7j-80" edge="1">
          <mxGeometry relative="1" as="geometry" />
        </mxCell>
        <mxCell id="jRNUs59h5QSE2_opnb7j-76" value="&lt;div style=&quot;background-color: rgb(255, 255, 255); font-family: &amp;quot;Fira Code&amp;quot;, Menlo, Monaco, &amp;quot;Courier New&amp;quot;, monospace; font-size: 14px; line-height: 21px; white-space: pre;&quot;&gt;&lt;div style=&quot;line-height: 21px;&quot;&gt;&lt;div style=&quot;line-height: 21px;&quot;&gt;&lt;div style=&quot;line-height: 21px;&quot;&gt;&lt;div style=&quot;line-height: 21px;&quot;&gt;&lt;div style=&quot;line-height: 21px;&quot;&gt;&lt;div style=&quot;line-height: 21px;&quot;&gt;&lt;div style=&quot;line-height: 21px;&quot;&gt;clip_conv&lt;/div&gt;&lt;/div&gt;&lt;/div&gt;&lt;/div&gt;&lt;/div&gt;&lt;/div&gt;&lt;/div&gt;&lt;/div&gt;" style="rounded=0;whiteSpace=wrap;html=1;" parent="1" vertex="1">
          <mxGeometry x="-561.9200000000001" y="202" width="145" height="35" as="geometry" />
        </mxCell>
        <mxCell id="jRNUs59h5QSE2_opnb7j-102" style="edgeStyle=orthogonalEdgeStyle;rounded=0;orthogonalLoop=1;jettySize=auto;html=1;exitX=0.5;exitY=0;exitDx=0;exitDy=0;entryX=0.5;entryY=1;entryDx=0;entryDy=0;" parent="1" source="jRNUs59h5QSE2_opnb7j-77" target="jRNUs59h5QSE2_opnb7j-98" edge="1">
          <mxGeometry relative="1" as="geometry">
            <mxPoint x="-950.4966666666667" y="89" as="sourcePoint" />
          </mxGeometry>
        </mxCell>
        <mxCell id="jRNUs59h5QSE2_opnb7j-77" value="&lt;div style=&quot;background-color: rgb(255, 255, 255); font-family: &amp;quot;Fira Code&amp;quot;, Menlo, Monaco, &amp;quot;Courier New&amp;quot;, monospace; font-size: 14px; line-height: 21px; white-space: pre;&quot;&gt;&lt;div style=&quot;line-height: 21px;&quot;&gt;&lt;div style=&quot;line-height: 21px;&quot;&gt;&lt;div style=&quot;line-height: 21px;&quot;&gt;&lt;div style=&quot;line-height: 21px;&quot;&gt;&lt;div style=&quot;line-height: 21px;&quot;&gt;&lt;div style=&quot;line-height: 21px;&quot;&gt;&lt;div style=&quot;line-height: 21px;&quot;&gt;sigmoid_dura_3&lt;/div&gt;&lt;/div&gt;&lt;/div&gt;&lt;/div&gt;&lt;/div&gt;&lt;/div&gt;&lt;/div&gt;&lt;/div&gt;" style="rounded=0;whiteSpace=wrap;html=1;" parent="1" vertex="1">
          <mxGeometry x="-1025.9966666666667" y="150" width="145" height="35" as="geometry" />
        </mxCell>
        <mxCell id="jRNUs59h5QSE2_opnb7j-103" style="edgeStyle=orthogonalEdgeStyle;rounded=0;orthogonalLoop=1;jettySize=auto;html=1;exitX=0.5;exitY=0;exitDx=0;exitDy=0;entryX=0.5;entryY=1;entryDx=0;entryDy=0;" parent="1" source="jRNUs59h5QSE2_opnb7j-78" target="jRNUs59h5QSE2_opnb7j-99" edge="1">
          <mxGeometry relative="1" as="geometry">
            <mxPoint x="-797.5799999999999" y="129" as="sourcePoint" />
          </mxGeometry>
        </mxCell>
        <mxCell id="jRNUs59h5QSE2_opnb7j-78" value="&lt;div style=&quot;background-color: rgb(255, 255, 255); font-family: &amp;quot;Fira Code&amp;quot;, Menlo, Monaco, &amp;quot;Courier New&amp;quot;, monospace; font-size: 14px; line-height: 21px; white-space: pre;&quot;&gt;&lt;div style=&quot;line-height: 21px;&quot;&gt;&lt;div style=&quot;line-height: 21px;&quot;&gt;&lt;div style=&quot;line-height: 21px;&quot;&gt;&lt;div style=&quot;line-height: 21px;&quot;&gt;&lt;div style=&quot;line-height: 21px;&quot;&gt;&lt;div style=&quot;line-height: 21px;&quot;&gt;&lt;div style=&quot;line-height: 21px;&quot;&gt;sigmoid_ctr&lt;/div&gt;&lt;/div&gt;&lt;/div&gt;&lt;/div&gt;&lt;/div&gt;&lt;/div&gt;&lt;/div&gt;&lt;/div&gt;" style="rounded=0;whiteSpace=wrap;html=1;" parent="1" vertex="1">
          <mxGeometry x="-873.08" y="150" width="145" height="35" as="geometry" />
        </mxCell>
        <mxCell id="jRNUs59h5QSE2_opnb7j-104" style="edgeStyle=orthogonalEdgeStyle;rounded=0;orthogonalLoop=1;jettySize=auto;html=1;entryX=0.5;entryY=1;entryDx=0;entryDy=0;exitX=0.5;exitY=0;exitDx=0;exitDy=0;" parent="1" source="jRNUs59h5QSE2_opnb7j-79" target="jRNUs59h5QSE2_opnb7j-100" edge="1">
          <mxGeometry relative="1" as="geometry">
            <mxPoint x="-627" y="129" as="sourcePoint" />
          </mxGeometry>
        </mxCell>
        <mxCell id="jRNUs59h5QSE2_opnb7j-79" value="&lt;div style=&quot;background-color: rgb(255, 255, 255); font-family: &amp;quot;Fira Code&amp;quot;, Menlo, Monaco, &amp;quot;Courier New&amp;quot;, monospace; font-size: 14px; line-height: 21px; white-space: pre;&quot;&gt;&lt;div style=&quot;line-height: 21px;&quot;&gt;&lt;div style=&quot;line-height: 21px;&quot;&gt;&lt;div style=&quot;line-height: 21px;&quot;&gt;&lt;div style=&quot;line-height: 21px;&quot;&gt;&lt;div style=&quot;line-height: 21px;&quot;&gt;&lt;div style=&quot;line-height: 21px;&quot;&gt;&lt;div style=&quot;line-height: 21px;&quot;&gt;&lt;div style=&quot;line-height: 21px;&quot;&gt;sigmoid_dura_30&lt;/div&gt;&lt;/div&gt;&lt;/div&gt;&lt;/div&gt;&lt;/div&gt;&lt;/div&gt;&lt;/div&gt;&lt;/div&gt;&lt;/div&gt;" style="rounded=0;whiteSpace=wrap;html=1;" parent="1" vertex="1">
          <mxGeometry x="-719.08" y="150" width="145" height="35" as="geometry" />
        </mxCell>
        <mxCell id="jRNUs59h5QSE2_opnb7j-105" style="edgeStyle=orthogonalEdgeStyle;rounded=0;orthogonalLoop=1;jettySize=auto;html=1;exitX=0.5;exitY=0;exitDx=0;exitDy=0;entryX=0.5;entryY=1;entryDx=0;entryDy=0;" parent="1" source="jRNUs59h5QSE2_opnb7j-80" target="jRNUs59h5QSE2_opnb7j-101" edge="1">
          <mxGeometry relative="1" as="geometry">
            <mxPoint x="-463.4200000000001" y="129" as="sourcePoint" />
          </mxGeometry>
        </mxCell>
        <mxCell id="jRNUs59h5QSE2_opnb7j-80" value="&lt;div style=&quot;background-color: rgb(255, 255, 255); font-family: &amp;quot;Fira Code&amp;quot;, Menlo, Monaco, &amp;quot;Courier New&amp;quot;, monospace; font-size: 14px; line-height: 21px; white-space: pre;&quot;&gt;&lt;div style=&quot;line-height: 21px;&quot;&gt;&lt;div style=&quot;line-height: 21px;&quot;&gt;&lt;div style=&quot;line-height: 21px;&quot;&gt;&lt;div style=&quot;line-height: 21px;&quot;&gt;&lt;div style=&quot;line-height: 21px;&quot;&gt;&lt;div style=&quot;line-height: 21px;&quot;&gt;&lt;div style=&quot;line-height: 21px;&quot;&gt;&lt;div style=&quot;line-height: 21px;&quot;&gt;sigmoid_conv&lt;/div&gt;&lt;/div&gt;&lt;/div&gt;&lt;/div&gt;&lt;/div&gt;&lt;/div&gt;&lt;/div&gt;&lt;/div&gt;&lt;/div&gt;" style="rounded=0;whiteSpace=wrap;html=1;" parent="1" vertex="1">
          <mxGeometry x="-561.9200000000001" y="150" width="145" height="35" as="geometry" />
        </mxCell>
        <mxCell id="jRNUs59h5QSE2_opnb7j-107" style="edgeStyle=orthogonalEdgeStyle;rounded=0;orthogonalLoop=1;jettySize=auto;html=1;exitX=0.5;exitY=0;exitDx=0;exitDy=0;" parent="1" source="jRNUs59h5QSE2_opnb7j-98" target="jRNUs59h5QSE2_opnb7j-106" edge="1">
          <mxGeometry relative="1" as="geometry" />
        </mxCell>
        <mxCell id="jRNUs59h5QSE2_opnb7j-98" value="&lt;div style=&quot;background-color: rgb(255, 255, 255); font-family: &amp;quot;Fira Code&amp;quot;, Menlo, Monaco, &amp;quot;Courier New&amp;quot;, monospace; font-size: 14px; line-height: 21px; white-space: pre;&quot;&gt;&lt;div style=&quot;line-height: 21px;&quot;&gt;&lt;div style=&quot;line-height: 21px;&quot;&gt;&lt;div style=&quot;line-height: 21px;&quot;&gt;&lt;div style=&quot;line-height: 21px;&quot;&gt;&lt;div style=&quot;line-height: 21px;&quot;&gt;&lt;div style=&quot;line-height: 21px;&quot;&gt;&lt;div style=&quot;line-height: 21px;&quot;&gt;&lt;div style=&quot;line-height: 21px;&quot;&gt;loss_dura_3&lt;/div&gt;&lt;/div&gt;&lt;/div&gt;&lt;/div&gt;&lt;/div&gt;&lt;/div&gt;&lt;/div&gt;&lt;/div&gt;&lt;/div&gt;" style="rounded=0;whiteSpace=wrap;html=1;" parent="1" vertex="1">
          <mxGeometry x="-1025.9966666666667" y="89" width="145" height="35" as="geometry" />
        </mxCell>
        <mxCell id="jRNUs59h5QSE2_opnb7j-108" style="edgeStyle=orthogonalEdgeStyle;rounded=0;orthogonalLoop=1;jettySize=auto;html=1;exitX=0.5;exitY=0;exitDx=0;exitDy=0;entryX=0.5;entryY=1;entryDx=0;entryDy=0;" parent="1" source="jRNUs59h5QSE2_opnb7j-99" target="jRNUs59h5QSE2_opnb7j-106" edge="1">
          <mxGeometry relative="1" as="geometry">
            <mxPoint x="-715.9966666666669" y="44" as="targetPoint" />
          </mxGeometry>
        </mxCell>
        <mxCell id="jRNUs59h5QSE2_opnb7j-99" value="&lt;div style=&quot;background-color: rgb(255, 255, 255); font-family: &amp;quot;Fira Code&amp;quot;, Menlo, Monaco, &amp;quot;Courier New&amp;quot;, monospace; font-size: 14px; line-height: 21px; white-space: pre;&quot;&gt;&lt;div style=&quot;line-height: 21px;&quot;&gt;&lt;div style=&quot;line-height: 21px;&quot;&gt;&lt;div style=&quot;line-height: 21px;&quot;&gt;&lt;div style=&quot;line-height: 21px;&quot;&gt;&lt;div style=&quot;line-height: 21px;&quot;&gt;&lt;div style=&quot;line-height: 21px;&quot;&gt;&lt;div style=&quot;line-height: 21px;&quot;&gt;&lt;div style=&quot;line-height: 21px;&quot;&gt;loss_ctr&lt;/div&gt;&lt;/div&gt;&lt;/div&gt;&lt;/div&gt;&lt;/div&gt;&lt;/div&gt;&lt;/div&gt;&lt;/div&gt;&lt;/div&gt;" style="rounded=0;whiteSpace=wrap;html=1;" parent="1" vertex="1">
          <mxGeometry x="-873.08" y="89" width="145" height="35" as="geometry" />
        </mxCell>
        <mxCell id="jRNUs59h5QSE2_opnb7j-109" style="edgeStyle=orthogonalEdgeStyle;rounded=0;orthogonalLoop=1;jettySize=auto;html=1;exitX=0.5;exitY=0;exitDx=0;exitDy=0;" parent="1" source="jRNUs59h5QSE2_opnb7j-100" target="jRNUs59h5QSE2_opnb7j-106" edge="1">
          <mxGeometry relative="1" as="geometry" />
        </mxCell>
        <mxCell id="jRNUs59h5QSE2_opnb7j-100" value="&lt;div style=&quot;background-color: rgb(255, 255, 255); font-family: &amp;quot;Fira Code&amp;quot;, Menlo, Monaco, &amp;quot;Courier New&amp;quot;, monospace; font-size: 14px; line-height: 21px; white-space: pre;&quot;&gt;&lt;div style=&quot;line-height: 21px;&quot;&gt;&lt;div style=&quot;line-height: 21px;&quot;&gt;&lt;div style=&quot;line-height: 21px;&quot;&gt;&lt;div style=&quot;line-height: 21px;&quot;&gt;&lt;div style=&quot;line-height: 21px;&quot;&gt;&lt;div style=&quot;line-height: 21px;&quot;&gt;&lt;div style=&quot;line-height: 21px;&quot;&gt;&lt;div style=&quot;line-height: 21px;&quot;&gt;&lt;div style=&quot;line-height: 21px;&quot;&gt;loss_dura_30&lt;/div&gt;&lt;/div&gt;&lt;/div&gt;&lt;/div&gt;&lt;/div&gt;&lt;/div&gt;&lt;/div&gt;&lt;/div&gt;&lt;/div&gt;&lt;/div&gt;" style="rounded=0;whiteSpace=wrap;html=1;" parent="1" vertex="1">
          <mxGeometry x="-719.08" y="89" width="145" height="35" as="geometry" />
        </mxCell>
        <mxCell id="jRNUs59h5QSE2_opnb7j-110" style="edgeStyle=orthogonalEdgeStyle;rounded=0;orthogonalLoop=1;jettySize=auto;html=1;exitX=0.5;exitY=0;exitDx=0;exitDy=0;entryX=0.5;entryY=1;entryDx=0;entryDy=0;" parent="1" source="jRNUs59h5QSE2_opnb7j-101" target="jRNUs59h5QSE2_opnb7j-106" edge="1">
          <mxGeometry relative="1" as="geometry" />
        </mxCell>
        <mxCell id="jRNUs59h5QSE2_opnb7j-101" value="&lt;div style=&quot;background-color: rgb(255, 255, 255); font-family: &amp;quot;Fira Code&amp;quot;, Menlo, Monaco, &amp;quot;Courier New&amp;quot;, monospace; font-size: 14px; line-height: 21px; white-space: pre;&quot;&gt;&lt;div style=&quot;line-height: 21px;&quot;&gt;&lt;div style=&quot;line-height: 21px;&quot;&gt;&lt;div style=&quot;line-height: 21px;&quot;&gt;&lt;div style=&quot;line-height: 21px;&quot;&gt;&lt;div style=&quot;line-height: 21px;&quot;&gt;&lt;div style=&quot;line-height: 21px;&quot;&gt;&lt;div style=&quot;line-height: 21px;&quot;&gt;&lt;div style=&quot;line-height: 21px;&quot;&gt;&lt;div style=&quot;line-height: 21px;&quot;&gt;loss_conv&lt;/div&gt;&lt;/div&gt;&lt;/div&gt;&lt;/div&gt;&lt;/div&gt;&lt;/div&gt;&lt;/div&gt;&lt;/div&gt;&lt;/div&gt;&lt;/div&gt;" style="rounded=0;whiteSpace=wrap;html=1;" parent="1" vertex="1">
          <mxGeometry x="-561.9200000000001" y="89" width="145" height="35" as="geometry" />
        </mxCell>
        <mxCell id="jRNUs59h5QSE2_opnb7j-106" value="&lt;div style=&quot;background-color: rgb(255, 255, 255); font-family: &amp;quot;Fira Code&amp;quot;, Menlo, Monaco, &amp;quot;Courier New&amp;quot;, monospace; font-size: 14px; line-height: 21px; white-space: pre;&quot;&gt;&lt;div style=&quot;line-height: 21px;&quot;&gt;&lt;div style=&quot;line-height: 21px;&quot;&gt;&lt;div style=&quot;line-height: 21px;&quot;&gt;&lt;div style=&quot;line-height: 21px;&quot;&gt;&lt;font color=&quot;#fc8d6a&quot;&gt;UWL&lt;/font&gt;&lt;/div&gt;&lt;/div&gt;&lt;/div&gt;&lt;/div&gt;&lt;/div&gt;" style="rounded=0;whiteSpace=wrap;html=1;" parent="1" vertex="1">
          <mxGeometry x="-780.4966666666667" y="14" width="145" height="35" as="geometry" />
        </mxCell>
        <mxCell id="jRNUs59h5QSE2_opnb7j-112" style="edgeStyle=orthogonalEdgeStyle;rounded=0;orthogonalLoop=1;jettySize=auto;html=1;" parent="1" source="jRNUs59h5QSE2_opnb7j-111" target="jRNUs59h5QSE2_opnb7j-106" edge="1">
          <mxGeometry relative="1" as="geometry" />
        </mxCell>
        <mxCell id="jRNUs59h5QSE2_opnb7j-111" value="&lt;div style=&quot;background-color: rgb(255, 255, 255); font-family: &amp;quot;Fira Code&amp;quot;, Menlo, Monaco, &amp;quot;Courier New&amp;quot;, monospace; font-size: 14px; line-height: 21px; white-space: pre;&quot;&gt;&lt;div style=&quot;line-height: 21px;&quot;&gt;&lt;div style=&quot;line-height: 21px;&quot;&gt;&lt;div style=&quot;line-height: 21px;&quot;&gt;&lt;div style=&quot;line-height: 21px;&quot;&gt;&lt;div style=&quot;line-height: 21px;&quot;&gt;&lt;div style=&quot;line-height: 21px;&quot;&gt;&lt;div style=&quot;line-height: 21px;&quot;&gt;&lt;div style=&quot;line-height: 21px;&quot;&gt;&lt;div style=&quot;line-height: 21px;&quot;&gt;&lt;div style=&quot;line-height: 21px;&quot;&gt;loss_belta&lt;/div&gt;&lt;/div&gt;&lt;/div&gt;&lt;/div&gt;&lt;/div&gt;&lt;/div&gt;&lt;/div&gt;&lt;/div&gt;&lt;/div&gt;&lt;/div&gt;&lt;/div&gt;" style="rounded=0;whiteSpace=wrap;html=1;" parent="1" vertex="1">
          <mxGeometry x="-580.0000000000001" y="14" width="145" height="35" as="geometry" />
        </mxCell>
        <mxCell id="jRNUs59h5QSE2_opnb7j-114" value="&lt;div style=&quot;background-color: rgb(255, 255, 255); font-family: &amp;quot;Fira Code&amp;quot;, Menlo, Monaco, &amp;quot;Courier New&amp;quot;, monospace; font-weight: normal; font-size: 14px; line-height: 21px; white-space: pre;&quot;&gt;&lt;div style=&quot;&quot;&gt;&lt;font color=&quot;#fc8d6a&quot;&gt;_q_result&lt;/font&gt;&lt;/div&gt;&lt;/div&gt;" style="text;whiteSpace=wrap;html=1;" parent="1" vertex="1">
          <mxGeometry x="-1111" y="150" width="110" height="40" as="geometry" />
        </mxCell>
        <mxCell id="V2eXVLYHtB6FcR149Pm0-5" style="edgeStyle=orthogonalEdgeStyle;rounded=0;orthogonalLoop=1;jettySize=auto;html=1;entryX=0.5;entryY=1;entryDx=0;entryDy=0;" parent="1" source="V2eXVLYHtB6FcR149Pm0-3" target="jRNUs59h5QSE2_opnb7j-68" edge="1">
          <mxGeometry relative="1" as="geometry" />
        </mxCell>
        <mxCell id="V2eXVLYHtB6FcR149Pm0-3" value="&lt;div style=&quot;background-color: rgb(255, 255, 255); font-family: &amp;quot;Fira Code&amp;quot;, Menlo, Monaco, &amp;quot;Courier New&amp;quot;, monospace; font-size: 14px; line-height: 21px; white-space: pre;&quot;&gt;&lt;div style=&quot;line-height: 21px;&quot;&gt;&lt;div style=&quot;line-height: 21px;&quot;&gt;gate_net&lt;/div&gt;&lt;/div&gt;&lt;/div&gt;" style="rounded=1;whiteSpace=wrap;html=1;fillColor=none;strokeColor=#FC8D6A;" parent="1" vertex="1">
          <mxGeometry x="-1003.5" y="329" width="94" height="35" as="geometry" />
        </mxCell>
        <mxCell id="V2eXVLYHtB6FcR149Pm0-8" style="edgeStyle=orthogonalEdgeStyle;rounded=0;orthogonalLoop=1;jettySize=auto;html=1;exitX=0.5;exitY=0;exitDx=0;exitDy=0;entryX=0.5;entryY=1;entryDx=0;entryDy=0;" parent="1" source="V2eXVLYHtB6FcR149Pm0-6" target="jRNUs59h5QSE2_opnb7j-69" edge="1">
          <mxGeometry relative="1" as="geometry" />
        </mxCell>
        <mxCell id="V2eXVLYHtB6FcR149Pm0-6" value="&lt;div style=&quot;background-color: rgb(255, 255, 255); font-family: &amp;quot;Fira Code&amp;quot;, Menlo, Monaco, &amp;quot;Courier New&amp;quot;, monospace; font-size: 14px; line-height: 21px; white-space: pre;&quot;&gt;&lt;div style=&quot;line-height: 21px;&quot;&gt;&lt;div style=&quot;line-height: 21px;&quot;&gt;gate_net&lt;/div&gt;&lt;/div&gt;&lt;/div&gt;" style="rounded=1;whiteSpace=wrap;html=1;fillColor=none;strokeColor=#FC8D6A;" parent="1" vertex="1">
          <mxGeometry x="-848.5" y="328" width="94" height="35" as="geometry" />
        </mxCell>
        <mxCell id="V2eXVLYHtB6FcR149Pm0-13" style="edgeStyle=orthogonalEdgeStyle;rounded=0;orthogonalLoop=1;jettySize=auto;html=1;exitX=0.5;exitY=0;exitDx=0;exitDy=0;entryX=0.5;entryY=1;entryDx=0;entryDy=0;" parent="1" source="V2eXVLYHtB6FcR149Pm0-9" target="jRNUs59h5QSE2_opnb7j-70" edge="1">
          <mxGeometry relative="1" as="geometry" />
        </mxCell>
        <mxCell id="V2eXVLYHtB6FcR149Pm0-9" value="&lt;div style=&quot;background-color: rgb(255, 255, 255); font-family: &amp;quot;Fira Code&amp;quot;, Menlo, Monaco, &amp;quot;Courier New&amp;quot;, monospace; font-size: 14px; line-height: 21px; white-space: pre;&quot;&gt;&lt;div style=&quot;line-height: 21px;&quot;&gt;&lt;div style=&quot;line-height: 21px;&quot;&gt;gate_net&lt;/div&gt;&lt;/div&gt;&lt;/div&gt;" style="rounded=1;whiteSpace=wrap;html=1;fillColor=none;strokeColor=#FC8D6A;" parent="1" vertex="1">
          <mxGeometry x="-693.5" y="328" width="94" height="35" as="geometry" />
        </mxCell>
        <mxCell id="V2eXVLYHtB6FcR149Pm0-12" style="edgeStyle=orthogonalEdgeStyle;rounded=0;orthogonalLoop=1;jettySize=auto;html=1;exitX=0.5;exitY=0;exitDx=0;exitDy=0;entryX=0.5;entryY=1;entryDx=0;entryDy=0;" parent="1" source="V2eXVLYHtB6FcR149Pm0-10" target="jRNUs59h5QSE2_opnb7j-71" edge="1">
          <mxGeometry relative="1" as="geometry" />
        </mxCell>
        <mxCell id="V2eXVLYHtB6FcR149Pm0-10" value="&lt;div style=&quot;background-color: rgb(255, 255, 255); font-family: &amp;quot;Fira Code&amp;quot;, Menlo, Monaco, &amp;quot;Courier New&amp;quot;, monospace; font-size: 14px; line-height: 21px; white-space: pre;&quot;&gt;&lt;div style=&quot;line-height: 21px;&quot;&gt;&lt;div style=&quot;line-height: 21px;&quot;&gt;gate_net&lt;/div&gt;&lt;/div&gt;&lt;/div&gt;" style="rounded=1;whiteSpace=wrap;html=1;fillColor=none;strokeColor=#FC8D6A;" parent="1" vertex="1">
          <mxGeometry x="-536.5" y="329" width="94" height="35" as="geometry" />
        </mxCell>
        <mxCell id="V2eXVLYHtB6FcR149Pm0-53" style="rounded=0;orthogonalLoop=1;jettySize=auto;html=1;exitX=1;exitY=0;exitDx=0;exitDy=0;entryX=0.005;entryY=0.924;entryDx=0;entryDy=0;entryPerimeter=0;endArrow=none;endFill=0;" parent="1" source="V2eXVLYHtB6FcR149Pm0-10" target="V2eXVLYHtB6FcR149Pm0-18" edge="1">
          <mxGeometry relative="1" as="geometry" />
        </mxCell>
        <mxCell id="V2eXVLYHtB6FcR149Pm0-54" value="" style="group;flipH=1;" parent="1" vertex="1" connectable="0">
          <mxGeometry x="-400" y="70" width="387.5" height="232" as="geometry" />
        </mxCell>
        <mxCell id="V2eXVLYHtB6FcR149Pm0-49" value="&lt;div style=&quot;background-color: rgb(255, 255, 255); font-family: &amp;quot;Fira Code&amp;quot;, Menlo, Monaco, &amp;quot;Courier New&amp;quot;, monospace; line-height: 21px; white-space-collapse: preserve; font-size: 11px;&quot;&gt;&lt;font style=&quot;font-size: 11px;&quot;&gt;elementwise_mul&lt;/font&gt;&lt;/div&gt;" style="text;html=1;align=center;verticalAlign=middle;resizable=0;points=[];autosize=1;strokeColor=none;fillColor=none;fontSize=11;" parent="V2eXVLYHtB6FcR149Pm0-54" vertex="1">
          <mxGeometry x="159.77173913043475" y="67.6063953488372" width="120" height="30" as="geometry" />
        </mxCell>
        <mxCell id="V2eXVLYHtB6FcR149Pm0-18" value="" style="rounded=1;whiteSpace=wrap;html=1;fillColor=none;strokeColor=#f8cecc;strokeWidth=3;fontSize=11;" parent="V2eXVLYHtB6FcR149Pm0-54" vertex="1">
          <mxGeometry width="387.5" height="232" as="geometry" />
        </mxCell>
        <mxCell id="V2eXVLYHtB6FcR149Pm0-19" value="&lt;font style=&quot;font-size: 14px;&quot;&gt;&lt;b style=&quot;font-size: 14px;&quot;&gt;gate_net&lt;/b&gt;&lt;/font&gt;" style="text;html=1;align=center;verticalAlign=middle;resizable=0;points=[];autosize=1;strokeColor=none;fillColor=none;fontSize=14;" parent="V2eXVLYHtB6FcR149Pm0-54" vertex="1">
          <mxGeometry x="22.33260869565213" y="21.129418604651164" width="80" height="30" as="geometry" />
        </mxCell>
        <mxCell id="V2eXVLYHtB6FcR149Pm0-37" style="edgeStyle=orthogonalEdgeStyle;rounded=0;orthogonalLoop=1;jettySize=auto;html=1;fontSize=11;" parent="V2eXVLYHtB6FcR149Pm0-54" source="V2eXVLYHtB6FcR149Pm0-20" target="V2eXVLYHtB6FcR149Pm0-21" edge="1">
          <mxGeometry relative="1" as="geometry" />
        </mxCell>
        <mxCell id="V2eXVLYHtB6FcR149Pm0-20" value="&lt;div style=&quot;background-color: rgb(255, 255, 255); font-family: &amp;quot;Fira Code&amp;quot;, Menlo, Monaco, &amp;quot;Courier New&amp;quot;, monospace; font-weight: normal; font-size: 11px; line-height: 21px; white-space: pre;&quot;&gt;&lt;div style=&quot;font-size: 11px;&quot;&gt;&lt;font style=&quot;font-size: 11px;&quot; color=&quot;#00994d&quot;&gt;gate_input&lt;/font&gt;&lt;/div&gt;&lt;/div&gt;" style="text;whiteSpace=wrap;html=1;align=center;strokeColor=default;fontSize=11;" parent="V2eXVLYHtB6FcR149Pm0-54" vertex="1">
          <mxGeometry x="250.19021739130437" y="196.35058139534885" width="109.51086956521739" height="28.406976744186046" as="geometry" />
        </mxCell>
        <mxCell id="V2eXVLYHtB6FcR149Pm0-36" style="edgeStyle=orthogonalEdgeStyle;rounded=0;orthogonalLoop=1;jettySize=auto;html=1;exitX=0.5;exitY=0;exitDx=0;exitDy=0;entryX=0.5;entryY=1;entryDx=0;entryDy=0;fontSize=11;" parent="V2eXVLYHtB6FcR149Pm0-54" source="V2eXVLYHtB6FcR149Pm0-21" target="V2eXVLYHtB6FcR149Pm0-22" edge="1">
          <mxGeometry relative="1" as="geometry" />
        </mxCell>
        <mxCell id="V2eXVLYHtB6FcR149Pm0-21" value="&lt;div style=&quot;background-color: rgb(255, 255, 255); font-family: &amp;quot;Fira Code&amp;quot;, Menlo, Monaco, &amp;quot;Courier New&amp;quot;, monospace; font-size: 11px; line-height: 21px; white-space: pre;&quot;&gt;&lt;div style=&quot;line-height: 21px; font-size: 11px;&quot;&gt;&lt;div style=&quot;line-height: 21px; font-size: 11px;&quot;&gt;deep_net &amp;amp; fc&lt;/div&gt;&lt;/div&gt;&lt;/div&gt;" style="rounded=1;whiteSpace=wrap;html=1;fontSize=11;" parent="V2eXVLYHtB6FcR149Pm0-54" vertex="1">
          <mxGeometry x="250.19021739130437" y="150.89941860465115" width="109.51086956521739" height="28.406976744186046" as="geometry" />
        </mxCell>
        <mxCell id="V2eXVLYHtB6FcR149Pm0-22" value="&lt;div style=&quot;color: rgb(0, 0, 0); background-color: rgb(255, 255, 255); font-family: &amp;quot;Fira Code&amp;quot;, Menlo, Monaco, &amp;quot;Courier New&amp;quot;, monospace; font-weight: normal; font-size: 11px; line-height: 21px; white-space: pre;&quot;&gt;&lt;div style=&quot;font-size: 11px;&quot;&gt;&lt;span style=&quot;color: rgb(0, 0, 0); font-size: 11px;&quot;&gt;cur_gate&lt;/span&gt;&lt;/div&gt;&lt;/div&gt;" style="text;whiteSpace=wrap;html=1;strokeColor=default;align=center;fontSize=11;" parent="V2eXVLYHtB6FcR149Pm0-54" vertex="1">
          <mxGeometry x="250.19021739130437" y="94.63662790697671" width="109.51086956521739" height="28.406976744186046" as="geometry" />
        </mxCell>
        <mxCell id="_OwXm2ctXyluCYjZFzj5-1" style="edgeStyle=orthogonalEdgeStyle;rounded=0;orthogonalLoop=1;jettySize=auto;html=1;exitX=0.5;exitY=0;exitDx=0;exitDy=0;entryX=0;entryY=0.5;entryDx=0;entryDy=0;" parent="V2eXVLYHtB6FcR149Pm0-54" source="V2eXVLYHtB6FcR149Pm0-23" target="V2eXVLYHtB6FcR149Pm0-38" edge="1">
          <mxGeometry relative="1" as="geometry" />
        </mxCell>
        <mxCell id="V2eXVLYHtB6FcR149Pm0-23" value="&lt;div style=&quot;color: rgb(0, 0, 0); background-color: rgb(255, 255, 255); font-family: &amp;quot;Fira Code&amp;quot;, Menlo, Monaco, &amp;quot;Courier New&amp;quot;, monospace; font-weight: normal; font-size: 11px; line-height: 21px; white-space: pre;&quot;&gt;&lt;div style=&quot;line-height: 21px; font-size: 11px;&quot;&gt;cur_expert&lt;/div&gt;&lt;/div&gt;" style="text;whiteSpace=wrap;html=1;strokeColor=default;align=center;fontSize=11;" parent="V2eXVLYHtB6FcR149Pm0-54" vertex="1">
          <mxGeometry x="69.07608695652173" y="90.57848837209303" width="109.51086956521739" height="28.406976744186046" as="geometry" />
        </mxCell>
        <mxCell id="V2eXVLYHtB6FcR149Pm0-33" style="edgeStyle=orthogonalEdgeStyle;rounded=0;orthogonalLoop=1;jettySize=auto;html=1;exitX=0.5;exitY=0;exitDx=0;exitDy=0;entryX=0.5;entryY=1;entryDx=0;entryDy=0;fontSize=11;" parent="V2eXVLYHtB6FcR149Pm0-54" source="V2eXVLYHtB6FcR149Pm0-24" target="V2eXVLYHtB6FcR149Pm0-23" edge="1">
          <mxGeometry relative="1" as="geometry">
            <Array as="points">
              <mxPoint x="178.58695652173913" y="137.15988372093022" />
              <mxPoint x="123.83152173913044" y="137.15988372093022" />
            </Array>
          </mxGeometry>
        </mxCell>
        <mxCell id="V2eXVLYHtB6FcR149Pm0-24" value="&lt;div style=&quot;color: rgb(0, 0, 0); font-family: &amp;quot;Fira Code&amp;quot;, Menlo, Monaco, &amp;quot;Courier New&amp;quot;, monospace; font-weight: normal; font-size: 11px; line-height: 21px; white-space: pre;&quot;&gt;&lt;div style=&quot;line-height: 21px; font-size: 11px;&quot;&gt;share_concate&lt;span style=&quot;background-color: rgb(255, 255, 255);&quot;&gt;&lt;br style=&quot;font-size: 11px;&quot;&gt;&lt;/span&gt;&lt;/div&gt;&lt;/div&gt;" style="text;whiteSpace=wrap;html=1;align=center;strokeColor=default;fontSize=11;" parent="V2eXVLYHtB6FcR149Pm0-54" vertex="1">
          <mxGeometry x="123.83152173913042" y="152.52267441860462" width="109.51086956521739" height="25.972093023255812" as="geometry" />
        </mxCell>
        <mxCell id="V2eXVLYHtB6FcR149Pm0-27" style="edgeStyle=orthogonalEdgeStyle;rounded=0;orthogonalLoop=1;jettySize=auto;html=1;exitX=0.5;exitY=0;exitDx=0;exitDy=0;entryX=0.5;entryY=1;entryDx=0;entryDy=0;fontSize=11;" parent="V2eXVLYHtB6FcR149Pm0-54" source="V2eXVLYHtB6FcR149Pm0-25" target="V2eXVLYHtB6FcR149Pm0-24" edge="1">
          <mxGeometry relative="1" as="geometry" />
        </mxCell>
        <mxCell id="V2eXVLYHtB6FcR149Pm0-48" value="" style="edgeStyle=orthogonalEdgeStyle;rounded=0;orthogonalLoop=1;jettySize=auto;html=1;fontSize=11;" parent="V2eXVLYHtB6FcR149Pm0-54" source="V2eXVLYHtB6FcR149Pm0-25" target="V2eXVLYHtB6FcR149Pm0-24" edge="1">
          <mxGeometry relative="1" as="geometry" />
        </mxCell>
        <mxCell id="V2eXVLYHtB6FcR149Pm0-25" value="&lt;div style=&quot;background-color: rgb(255, 255, 255); font-family: &amp;quot;Fira Code&amp;quot;, Menlo, Monaco, &amp;quot;Courier New&amp;quot;, monospace; font-weight: normal; font-size: 11px; line-height: 21px; white-space: pre;&quot;&gt;&lt;div style=&quot;line-height: 21px; font-size: 11px;&quot;&gt;&lt;div style=&quot;line-height: 21px; font-size: 11px;&quot;&gt;&lt;div style=&quot;line-height: 21px; font-size: 11px;&quot;&gt;share_experts&lt;/div&gt;&lt;/div&gt;&lt;/div&gt;&lt;/div&gt;" style="text;whiteSpace=wrap;html=1;align=center;strokeColor=default;fontColor=#0000FF;fontSize=11;" parent="V2eXVLYHtB6FcR149Pm0-54" vertex="1">
          <mxGeometry x="123.83152173913042" y="194.72732558139535" width="109.51086956521739" height="28.406976744186046" as="geometry" />
        </mxCell>
        <mxCell id="V2eXVLYHtB6FcR149Pm0-34" style="edgeStyle=orthogonalEdgeStyle;rounded=0;orthogonalLoop=1;jettySize=auto;html=1;exitX=0.5;exitY=0;exitDx=0;exitDy=0;fontSize=11;" parent="V2eXVLYHtB6FcR149Pm0-54" source="V2eXVLYHtB6FcR149Pm0-26" target="V2eXVLYHtB6FcR149Pm0-23" edge="1">
          <mxGeometry relative="1" as="geometry">
            <Array as="points">
              <mxPoint x="60.65217391304344" y="137.15988372093022" />
              <mxPoint x="123.83152173913044" y="137.15988372093022" />
            </Array>
          </mxGeometry>
        </mxCell>
        <mxCell id="V2eXVLYHtB6FcR149Pm0-26" value="&lt;div style=&quot;font-family: &amp;quot;Fira Code&amp;quot;, Menlo, Monaco, &amp;quot;Courier New&amp;quot;, monospace; font-weight: normal; line-height: 21px; white-space: pre; font-size: 11px;&quot;&gt;&lt;div style=&quot;line-height: 21px; font-size: 11px;&quot;&gt;&lt;div style=&quot;line-height: 21px; font-size: 11px;&quot;&gt;&lt;div style=&quot;line-height: 21px; font-size: 11px;&quot;&gt;&lt;div style=&quot;line-height: 21px; font-size: 11px;&quot;&gt;&lt;font color=&quot;#999900&quot; style=&quot;font-size: 11px;&quot;&gt;target_expert_i&lt;/font&gt;&lt;/div&gt;&lt;/div&gt;&lt;/div&gt;&lt;/div&gt;&lt;/div&gt;" style="text;whiteSpace=wrap;html=1;align=center;strokeColor=default;fontSize=11;" parent="V2eXVLYHtB6FcR149Pm0-54" vertex="1">
          <mxGeometry x="9.266304347826036" y="152.52267441860462" width="106.1413043478261" height="25.972093023255812" as="geometry" />
        </mxCell>
        <mxCell id="V2eXVLYHtB6FcR149Pm0-44" style="edgeStyle=orthogonalEdgeStyle;rounded=0;orthogonalLoop=1;jettySize=auto;html=1;exitX=0.5;exitY=0;exitDx=0;exitDy=0;entryX=1;entryY=0.5;entryDx=0;entryDy=0;fontSize=11;" parent="V2eXVLYHtB6FcR149Pm0-54" source="V2eXVLYHtB6FcR149Pm0-22" target="V2eXVLYHtB6FcR149Pm0-38" edge="1">
          <mxGeometry relative="1" as="geometry" />
        </mxCell>
        <mxCell id="V2eXVLYHtB6FcR149Pm0-46" value="&lt;div style=&quot;color: rgb(0, 0, 0); background-color: rgb(255, 255, 255); font-family: &amp;quot;Fira Code&amp;quot;, Menlo, Monaco, &amp;quot;Courier New&amp;quot;, monospace; font-weight: normal; font-size: 11px; line-height: 21px; white-space: pre;&quot;&gt;&lt;div style=&quot;line-height: 21px; font-size: 11px;&quot;&gt;cur_gate_expert&lt;/div&gt;&lt;/div&gt;" style="text;whiteSpace=wrap;html=1;strokeColor=default;align=center;fontSize=11;" parent="V2eXVLYHtB6FcR149Pm0-54" vertex="1">
          <mxGeometry x="161.73913043478262" y="7.2994186046511516" width="109.51086956521739" height="28.406976744186046" as="geometry" />
        </mxCell>
        <mxCell id="V2eXVLYHtB6FcR149Pm0-47" style="edgeStyle=orthogonalEdgeStyle;rounded=0;orthogonalLoop=1;jettySize=auto;html=1;exitX=0.5;exitY=0;exitDx=0;exitDy=0;entryX=0.5;entryY=1;entryDx=0;entryDy=0;fontSize=11;" parent="V2eXVLYHtB6FcR149Pm0-54" source="V2eXVLYHtB6FcR149Pm0-38" target="V2eXVLYHtB6FcR149Pm0-46" edge="1">
          <mxGeometry relative="1" as="geometry" />
        </mxCell>
        <mxCell id="V2eXVLYHtB6FcR149Pm0-42" value="" style="group;rotation=0;fontSize=11;" parent="V2eXVLYHtB6FcR149Pm0-54" vertex="1" connectable="0">
          <mxGeometry x="203.85869565217394" y="51.127325581395354" width="25.271739130434785" height="24.348837209302324" as="geometry" />
        </mxCell>
        <mxCell id="V2eXVLYHtB6FcR149Pm0-38" value="" style="ellipse;whiteSpace=wrap;html=1;aspect=fixed;container=0;rotation=0;fontSize=11;" parent="V2eXVLYHtB6FcR149Pm0-42" vertex="1">
          <mxGeometry width="23.866599475328886" height="23.866599475328886" as="geometry" />
        </mxCell>
        <mxCell id="V2eXVLYHtB6FcR149Pm0-39" value="" style="endArrow=none;html=1;rounded=0;entryX=1;entryY=0;entryDx=0;entryDy=0;exitX=0;exitY=1;exitDx=0;exitDy=0;fontSize=11;" parent="V2eXVLYHtB6FcR149Pm0-42" source="V2eXVLYHtB6FcR149Pm0-38" target="V2eXVLYHtB6FcR149Pm0-38" edge="1">
          <mxGeometry width="50" height="50" relative="1" as="geometry">
            <mxPoint x="5.054347826086956" y="21.10232558139535" as="sourcePoint" />
            <mxPoint x="21.059782608695652" y="3.2465116279069766" as="targetPoint" />
          </mxGeometry>
        </mxCell>
        <mxCell id="V2eXVLYHtB6FcR149Pm0-40" value="" style="endArrow=none;html=1;rounded=0;exitX=0;exitY=0;exitDx=0;exitDy=0;fontSize=11;" parent="V2eXVLYHtB6FcR149Pm0-42" source="V2eXVLYHtB6FcR149Pm0-38" edge="1">
          <mxGeometry width="50" height="50" relative="1" as="geometry">
            <mxPoint x="5.054347826086956" y="3.2465116279069766" as="sourcePoint" />
            <mxPoint x="21.90217391304348" y="20.290697674418603" as="targetPoint" />
          </mxGeometry>
        </mxCell>
        <mxCell id="eApFAiqovPUqgppiBiww-7" style="edgeStyle=orthogonalEdgeStyle;rounded=0;orthogonalLoop=1;jettySize=auto;html=1;exitX=0.5;exitY=0;exitDx=0;exitDy=0;entryX=0.5;entryY=1;entryDx=0;entryDy=0;" edge="1" parent="1" source="eApFAiqovPUqgppiBiww-3" target="eApFAiqovPUqgppiBiww-6">
          <mxGeometry relative="1" as="geometry" />
        </mxCell>
        <mxCell id="eApFAiqovPUqgppiBiww-47" style="edgeStyle=orthogonalEdgeStyle;shape=connector;rounded=0;orthogonalLoop=1;jettySize=auto;html=1;entryX=1;entryY=0.5;entryDx=0;entryDy=0;strokeColor=default;align=center;verticalAlign=middle;fontFamily=Helvetica;fontSize=11;fontColor=default;labelBackgroundColor=default;endArrow=classic;" edge="1" parent="1" source="eApFAiqovPUqgppiBiww-3" target="jRNUs59h5QSE2_opnb7j-47">
          <mxGeometry relative="1" as="geometry" />
        </mxCell>
        <mxCell id="eApFAiqovPUqgppiBiww-48" value="reshape" style="edgeLabel;html=1;align=center;verticalAlign=middle;resizable=0;points=[];fontFamily=Helvetica;fontSize=11;fontColor=default;labelBackgroundColor=default;" vertex="1" connectable="0" parent="eApFAiqovPUqgppiBiww-47">
          <mxGeometry x="-0.3427" relative="1" as="geometry">
            <mxPoint x="-5" y="-10" as="offset" />
          </mxGeometry>
        </mxCell>
        <mxCell id="eApFAiqovPUqgppiBiww-3" value="&lt;div style=&quot;background-color: rgb(255, 255, 255); font-family: &amp;quot;Fira Code&amp;quot;, Menlo, Monaco, &amp;quot;Courier New&amp;quot;, monospace; font-size: 14px; line-height: 21px; white-space: pre;&quot;&gt;&lt;div style=&quot;line-height: 21px;&quot;&gt;&lt;div style=&quot;line-height: 21px;&quot;&gt;user_emb&lt;/div&gt;&lt;/div&gt;&lt;/div&gt;" style="rounded=0;whiteSpace=wrap;html=1;" vertex="1" parent="1">
          <mxGeometry x="-259.5" y="733" width="126" height="35" as="geometry" />
        </mxCell>
        <mxCell id="eApFAiqovPUqgppiBiww-8" style="edgeStyle=orthogonalEdgeStyle;rounded=0;orthogonalLoop=1;jettySize=auto;html=1;entryX=0.5;entryY=1;entryDx=0;entryDy=0;" edge="1" parent="1" source="eApFAiqovPUqgppiBiww-4" target="eApFAiqovPUqgppiBiww-6">
          <mxGeometry relative="1" as="geometry" />
        </mxCell>
        <mxCell id="eApFAiqovPUqgppiBiww-18" value="&lt;span style=&quot;font-family: &amp;quot;Fira Code&amp;quot;, Menlo, Monaco, &amp;quot;Courier New&amp;quot;, monospace; text-align: left; white-space-collapse: preserve;&quot;&gt;&lt;font style=&quot;font-size: 10px;&quot;&gt;attention()&lt;/font&gt;&lt;/span&gt;" style="edgeLabel;html=1;align=center;verticalAlign=middle;resizable=0;points=[];" vertex="1" connectable="0" parent="eApFAiqovPUqgppiBiww-8">
          <mxGeometry x="-0.1916" y="1" relative="1" as="geometry">
            <mxPoint x="-52" y="-20" as="offset" />
          </mxGeometry>
        </mxCell>
        <mxCell id="eApFAiqovPUqgppiBiww-23" style="edgeStyle=orthogonalEdgeStyle;rounded=0;orthogonalLoop=1;jettySize=auto;html=1;entryX=0;entryY=0.5;entryDx=0;entryDy=0;" edge="1" parent="1" source="eApFAiqovPUqgppiBiww-4" target="eApFAiqovPUqgppiBiww-19">
          <mxGeometry relative="1" as="geometry" />
        </mxCell>
        <mxCell id="eApFAiqovPUqgppiBiww-24" value="&lt;span style=&quot;font-family: &amp;quot;Fira Code&amp;quot;, Menlo, Monaco, &amp;quot;Courier New&amp;quot;, monospace; font-size: 10px; text-align: left; white-space-collapse: preserve;&quot;&gt;attention()&lt;/span&gt;" style="edgeLabel;html=1;align=center;verticalAlign=middle;resizable=0;points=[];" vertex="1" connectable="0" parent="eApFAiqovPUqgppiBiww-23">
          <mxGeometry x="0.3951" y="1" relative="1" as="geometry">
            <mxPoint x="-23" y="-8" as="offset" />
          </mxGeometry>
        </mxCell>
        <mxCell id="eApFAiqovPUqgppiBiww-51" style="edgeStyle=orthogonalEdgeStyle;shape=connector;rounded=0;orthogonalLoop=1;jettySize=auto;html=1;exitX=1;exitY=0.5;exitDx=0;exitDy=0;entryX=0;entryY=0.5;entryDx=0;entryDy=0;strokeColor=default;align=center;verticalAlign=middle;fontFamily=Helvetica;fontSize=11;fontColor=default;labelBackgroundColor=default;endArrow=classic;" edge="1" parent="1" source="eApFAiqovPUqgppiBiww-4" target="eApFAiqovPUqgppiBiww-50">
          <mxGeometry relative="1" as="geometry" />
        </mxCell>
        <mxCell id="eApFAiqovPUqgppiBiww-52" value="reshape()" style="edgeLabel;html=1;align=center;verticalAlign=middle;resizable=0;points=[];fontFamily=Helvetica;fontSize=11;fontColor=default;labelBackgroundColor=default;" vertex="1" connectable="0" parent="eApFAiqovPUqgppiBiww-51">
          <mxGeometry x="0.6743" y="-1" relative="1" as="geometry">
            <mxPoint x="-9" y="13" as="offset" />
          </mxGeometry>
        </mxCell>
        <mxCell id="eApFAiqovPUqgppiBiww-4" value="&lt;div style=&quot;background-color: rgb(255, 255, 255); font-family: &amp;quot;Fira Code&amp;quot;, Menlo, Monaco, &amp;quot;Courier New&amp;quot;, monospace; font-size: 14px; line-height: 21px; white-space: pre;&quot;&gt;&lt;div style=&quot;line-height: 21px;&quot;&gt;&lt;div style=&quot;line-height: 21px;&quot;&gt;&lt;div style=&quot;line-height: 21px;&quot;&gt;seeds_emb&lt;/div&gt;&lt;/div&gt;&lt;/div&gt;&lt;/div&gt;" style="rounded=0;whiteSpace=wrap;html=1;" vertex="1" parent="1">
          <mxGeometry x="-116.5" y="732" width="126" height="35" as="geometry" />
        </mxCell>
        <mxCell id="eApFAiqovPUqgppiBiww-9" value="reshape" style="edgeStyle=orthogonalEdgeStyle;rounded=0;orthogonalLoop=1;jettySize=auto;html=1;exitX=0.5;exitY=0;exitDx=0;exitDy=0;entryX=0.5;entryY=1;entryDx=0;entryDy=0;" edge="1" parent="1" source="eApFAiqovPUqgppiBiww-6" target="jRNUs59h5QSE2_opnb7j-2">
          <mxGeometry relative="1" as="geometry" />
        </mxCell>
        <mxCell id="eApFAiqovPUqgppiBiww-6" value="&lt;div style=&quot;background-color: rgb(255, 255, 255); font-family: &amp;quot;Fira Code&amp;quot;, Menlo, Monaco, &amp;quot;Courier New&amp;quot;, monospace; font-size: 14px; line-height: 21px; white-space: pre;&quot;&gt;&lt;div style=&quot;line-height: 21px;&quot;&gt;&lt;span style=&quot;text-align: left;&quot;&gt;user_att&lt;/span&gt;&lt;br&gt;&lt;/div&gt;&lt;/div&gt;" style="rounded=0;whiteSpace=wrap;html=1;" vertex="1" parent="1">
          <mxGeometry x="-190.5" y="626" width="126" height="35" as="geometry" />
        </mxCell>
        <mxCell id="eApFAiqovPUqgppiBiww-13" style="edgeStyle=orthogonalEdgeStyle;rounded=0;orthogonalLoop=1;jettySize=auto;html=1;entryX=0.5;entryY=1;entryDx=0;entryDy=0;" edge="1" parent="1" source="eApFAiqovPUqgppiBiww-12" target="jRNUs59h5QSE2_opnb7j-4">
          <mxGeometry relative="1" as="geometry" />
        </mxCell>
        <mxCell id="eApFAiqovPUqgppiBiww-14" value="reshape" style="edgeLabel;html=1;align=center;verticalAlign=middle;resizable=0;points=[];" vertex="1" connectable="0" parent="eApFAiqovPUqgppiBiww-13">
          <mxGeometry x="0.2742" y="3" relative="1" as="geometry">
            <mxPoint as="offset" />
          </mxGeometry>
        </mxCell>
        <mxCell id="eApFAiqovPUqgppiBiww-12" value="&lt;div style=&quot;background-color: rgb(255, 255, 255); font-family: &amp;quot;Fira Code&amp;quot;, Menlo, Monaco, &amp;quot;Courier New&amp;quot;, monospace; font-size: 14px; line-height: 21px; white-space: pre;&quot;&gt;&lt;div style=&quot;line-height: 21px;&quot;&gt;&lt;div style=&quot;line-height: 21px;&quot;&gt;seeds_att_avg&lt;/div&gt;&lt;/div&gt;&lt;/div&gt;" style="rounded=0;whiteSpace=wrap;html=1;" vertex="1" parent="1">
          <mxGeometry x="-35.83000000000001" y="621" width="126" height="35" as="geometry" />
        </mxCell>
        <mxCell id="eApFAiqovPUqgppiBiww-16" style="edgeStyle=orthogonalEdgeStyle;rounded=0;orthogonalLoop=1;jettySize=auto;html=1;entryX=1;entryY=0.5;entryDx=0;entryDy=0;" edge="1" parent="1" source="eApFAiqovPUqgppiBiww-15" target="eApFAiqovPUqgppiBiww-12">
          <mxGeometry relative="1" as="geometry" />
        </mxCell>
        <mxCell id="eApFAiqovPUqgppiBiww-17" value="&lt;div style=&quot;font-family: &amp;quot;Fira Code&amp;quot;, Menlo, Monaco, &amp;quot;Courier New&amp;quot;, monospace; line-height: 21px; white-space-collapse: preserve;&quot;&gt;&lt;font style=&quot;font-size: 10px;&quot;&gt;pool2d&lt;/font&gt;&lt;/div&gt;" style="edgeLabel;html=1;align=center;verticalAlign=middle;resizable=0;points=[];" vertex="1" connectable="0" parent="eApFAiqovPUqgppiBiww-16">
          <mxGeometry x="-0.1614" relative="1" as="geometry">
            <mxPoint as="offset" />
          </mxGeometry>
        </mxCell>
        <mxCell id="eApFAiqovPUqgppiBiww-15" value="&lt;meta charset=&quot;utf-8&quot;&gt;&lt;div style=&quot;color: #000000;background-color: #ffffff;font-family: &#39;Fira Code&#39;, Menlo, Monaco, &#39;Courier New&#39;, monospace;font-weight: normal;font-size: 14px;line-height: 21px;white-space: pre;&quot;&gt;&lt;div&gt;&lt;span style=&quot;color: #000000;&quot;&gt;seeds_att_pool_shape&lt;/span&gt;&lt;/div&gt;&lt;/div&gt;" style="rounded=0;whiteSpace=wrap;html=1;" vertex="1" parent="1">
          <mxGeometry x="67.5" y="664" width="190" height="35" as="geometry" />
        </mxCell>
        <mxCell id="eApFAiqovPUqgppiBiww-21" style="edgeStyle=orthogonalEdgeStyle;rounded=0;orthogonalLoop=1;jettySize=auto;html=1;entryX=0.5;entryY=1;entryDx=0;entryDy=0;" edge="1" parent="1" source="eApFAiqovPUqgppiBiww-19" target="eApFAiqovPUqgppiBiww-15">
          <mxGeometry relative="1" as="geometry" />
        </mxCell>
        <mxCell id="eApFAiqovPUqgppiBiww-22" value="&lt;font style=&quot;font-size: 10px;&quot;&gt;reshape&lt;/font&gt;" style="edgeLabel;html=1;align=center;verticalAlign=middle;resizable=0;points=[];" vertex="1" connectable="0" parent="eApFAiqovPUqgppiBiww-21">
          <mxGeometry x="0.0989" y="1" relative="1" as="geometry">
            <mxPoint as="offset" />
          </mxGeometry>
        </mxCell>
        <mxCell id="eApFAiqovPUqgppiBiww-19" value="&lt;div style=&quot;background-color: rgb(255, 255, 255); font-family: &amp;quot;Fira Code&amp;quot;, Menlo, Monaco, &amp;quot;Courier New&amp;quot;, monospace; font-size: 14px; line-height: 21px; white-space: pre;&quot;&gt;&lt;div style=&quot;line-height: 21px;&quot;&gt;&lt;div style=&quot;line-height: 21px;&quot;&gt;&lt;div style=&quot;line-height: 21px;&quot;&gt;seeds_att&lt;/div&gt;&lt;/div&gt;&lt;/div&gt;&lt;/div&gt;" style="rounded=0;whiteSpace=wrap;html=1;" vertex="1" parent="1">
          <mxGeometry x="99.5" y="732" width="126" height="35" as="geometry" />
        </mxCell>
        <mxCell id="eApFAiqovPUqgppiBiww-36" style="edgeStyle=orthogonalEdgeStyle;shape=connector;rounded=0;orthogonalLoop=1;jettySize=auto;html=1;strokeColor=default;align=center;verticalAlign=middle;fontFamily=Helvetica;fontSize=11;fontColor=default;labelBackgroundColor=default;endArrow=classic;dashed=1;" edge="1" parent="1" source="eApFAiqovPUqgppiBiww-30" target="eApFAiqovPUqgppiBiww-3">
          <mxGeometry relative="1" as="geometry" />
        </mxCell>
        <mxCell id="eApFAiqovPUqgppiBiww-38" value="&lt;div style=&quot;font-family: &amp;quot;Fira Code&amp;quot;, Menlo, Monaco, &amp;quot;Courier New&amp;quot;, monospace; line-height: 21px; white-space-collapse: preserve;&quot;&gt;&lt;font style=&quot;font-size: 10px;&quot;&gt;input_fc_embedding()&lt;/font&gt;&lt;/div&gt;" style="edgeLabel;html=1;align=center;verticalAlign=middle;resizable=0;points=[];fontFamily=Helvetica;fontSize=11;fontColor=default;labelBackgroundColor=default;" vertex="1" connectable="0" parent="eApFAiqovPUqgppiBiww-36">
          <mxGeometry x="-0.5385" y="1" relative="1" as="geometry">
            <mxPoint x="1" y="-12" as="offset" />
          </mxGeometry>
        </mxCell>
        <mxCell id="eApFAiqovPUqgppiBiww-30" value="&lt;div style=&quot;background-color: rgb(255, 255, 255); font-family: &amp;quot;Fira Code&amp;quot;, Menlo, Monaco, &amp;quot;Courier New&amp;quot;, monospace; font-size: 14px; line-height: 21px; white-space: pre;&quot;&gt;&lt;div style=&quot;line-height: 21px;&quot;&gt;&lt;div style=&quot;line-height: 21px;&quot;&gt;user_reshape&lt;/div&gt;&lt;/div&gt;&lt;/div&gt;" style="rounded=0;whiteSpace=wrap;html=1;" vertex="1" parent="1">
          <mxGeometry x="-259.5" y="812" width="126" height="35" as="geometry" />
        </mxCell>
        <mxCell id="eApFAiqovPUqgppiBiww-37" style="edgeStyle=orthogonalEdgeStyle;shape=connector;rounded=0;orthogonalLoop=1;jettySize=auto;html=1;entryX=0.5;entryY=1;entryDx=0;entryDy=0;strokeColor=default;align=center;verticalAlign=middle;fontFamily=Helvetica;fontSize=11;fontColor=default;labelBackgroundColor=default;endArrow=classic;dashed=1;" edge="1" parent="1" source="eApFAiqovPUqgppiBiww-31" target="eApFAiqovPUqgppiBiww-4">
          <mxGeometry relative="1" as="geometry" />
        </mxCell>
        <mxCell id="eApFAiqovPUqgppiBiww-39" value="&lt;span style=&quot;font-family: &amp;quot;Fira Code&amp;quot;, Menlo, Monaco, &amp;quot;Courier New&amp;quot;, monospace; font-size: 10px; white-space-collapse: preserve;&quot;&gt;input_fc_embedding()&lt;/span&gt;" style="edgeLabel;html=1;align=center;verticalAlign=middle;resizable=0;points=[];fontFamily=Helvetica;fontSize=11;fontColor=default;labelBackgroundColor=default;" vertex="1" connectable="0" parent="eApFAiqovPUqgppiBiww-37">
          <mxGeometry x="-0.0478" y="2" relative="1" as="geometry">
            <mxPoint as="offset" />
          </mxGeometry>
        </mxCell>
        <mxCell id="eApFAiqovPUqgppiBiww-31" value="&lt;div style=&quot;background-color: rgb(255, 255, 255); font-family: &amp;quot;Fira Code&amp;quot;, Menlo, Monaco, &amp;quot;Courier New&amp;quot;, monospace; font-size: 14px; line-height: 21px; white-space: pre;&quot;&gt;&lt;div style=&quot;line-height: 21px;&quot;&gt;&lt;div style=&quot;line-height: 21px;&quot;&gt;&lt;div style=&quot;line-height: 21px;&quot;&gt;seeds_reshape&lt;/div&gt;&lt;/div&gt;&lt;/div&gt;&lt;/div&gt;" style="rounded=0;whiteSpace=wrap;html=1;" vertex="1" parent="1">
          <mxGeometry x="-116.5" y="811" width="126" height="35" as="geometry" />
        </mxCell>
        <mxCell id="eApFAiqovPUqgppiBiww-34" value="reshape" style="edgeStyle=orthogonalEdgeStyle;shape=connector;rounded=0;orthogonalLoop=1;jettySize=auto;html=1;entryX=0.5;entryY=1;entryDx=0;entryDy=0;strokeColor=default;align=center;verticalAlign=middle;fontFamily=Helvetica;fontSize=11;fontColor=default;labelBackgroundColor=default;endArrow=classic;" edge="1" parent="1" source="eApFAiqovPUqgppiBiww-32" target="eApFAiqovPUqgppiBiww-30">
          <mxGeometry x="-0.0773" y="24" relative="1" as="geometry">
            <mxPoint as="offset" />
          </mxGeometry>
        </mxCell>
        <mxCell id="eApFAiqovPUqgppiBiww-32" value="&lt;div style=&quot;background-color: rgb(255, 255, 255); font-family: &amp;quot;Fira Code&amp;quot;, Menlo, Monaco, &amp;quot;Courier New&amp;quot;, monospace; font-size: 14px; line-height: 21px; white-space: pre;&quot;&gt;&lt;div style=&quot;line-height: 21px;&quot;&gt;&lt;div style=&quot;line-height: 21px;&quot;&gt;user_slot&lt;/div&gt;&lt;/div&gt;&lt;/div&gt;" style="rounded=0;whiteSpace=wrap;html=1;" vertex="1" parent="1">
          <mxGeometry x="-260" y="879" width="126" height="35" as="geometry" />
        </mxCell>
        <mxCell id="eApFAiqovPUqgppiBiww-35" value="reshape" style="edgeStyle=orthogonalEdgeStyle;shape=connector;rounded=0;orthogonalLoop=1;jettySize=auto;html=1;strokeColor=default;align=center;verticalAlign=middle;fontFamily=Helvetica;fontSize=11;fontColor=default;labelBackgroundColor=default;endArrow=classic;" edge="1" parent="1">
          <mxGeometry x="-0.1489" y="-24" relative="1" as="geometry">
            <mxPoint x="-53.012820512820326" y="878" as="sourcePoint" />
            <mxPoint x="-52.5" y="846" as="targetPoint" />
            <mxPoint as="offset" />
          </mxGeometry>
        </mxCell>
        <mxCell id="eApFAiqovPUqgppiBiww-33" value="&lt;div style=&quot;background-color: rgb(255, 255, 255); font-family: &amp;quot;Fira Code&amp;quot;, Menlo, Monaco, &amp;quot;Courier New&amp;quot;, monospace; font-size: 14px; line-height: 21px; white-space: pre;&quot;&gt;&lt;div style=&quot;line-height: 21px;&quot;&gt;&lt;div style=&quot;line-height: 21px;&quot;&gt;&lt;div style=&quot;line-height: 21px;&quot;&gt;seeds_slot&lt;/div&gt;&lt;/div&gt;&lt;/div&gt;&lt;/div&gt;" style="rounded=0;whiteSpace=wrap;html=1;" vertex="1" parent="1">
          <mxGeometry x="-117" y="878" width="126" height="35" as="geometry" />
        </mxCell>
        <mxCell id="eApFAiqovPUqgppiBiww-43" value="&lt;span style=&quot;font-family: &amp;quot;Fira Code&amp;quot;, Menlo, Monaco, &amp;quot;Courier New&amp;quot;, monospace; white-space-collapse: preserve;&quot;&gt;&lt;font style=&quot;font-size: 10px;&quot;&gt;deep_net()&lt;/font&gt;&lt;/span&gt;" style="edgeLabel;html=1;align=center;verticalAlign=middle;resizable=0;points=[];fontFamily=Helvetica;fontSize=11;fontColor=default;labelBackgroundColor=default;" vertex="1" connectable="0" parent="1">
          <mxGeometry x="-58.67026406079832" y="449.995018722428" as="geometry" />
        </mxCell>
        <mxCell id="eApFAiqovPUqgppiBiww-46" value="&lt;span style=&quot;font-family: &amp;quot;Fira Code&amp;quot;, Menlo, Monaco, &amp;quot;Courier New&amp;quot;, monospace; white-space-collapse: preserve;&quot;&gt;&lt;font style=&quot;font-size: 10px;&quot;&gt;deep_net()&lt;/font&gt;&lt;/span&gt;" style="edgeLabel;html=1;align=center;verticalAlign=middle;resizable=0;points=[];fontFamily=Helvetica;fontSize=11;fontColor=default;labelBackgroundColor=default;" vertex="1" connectable="0" parent="1">
          <mxGeometry x="-435.0002640607983" y="473.87501872242797" as="geometry" />
        </mxCell>
        <mxCell id="eApFAiqovPUqgppiBiww-49" value="&lt;div style=&quot;background-color: rgb(255, 255, 255); font-family: &amp;quot;Fira Code&amp;quot;, Menlo, Monaco, &amp;quot;Courier New&amp;quot;, monospace; font-size: 14px; line-height: 21px; white-space: pre;&quot;&gt;&lt;div style=&quot;line-height: 21px;&quot;&gt;&lt;div style=&quot;line-height: 21px;&quot;&gt;&lt;div style=&quot;line-height: 21px;&quot;&gt;user_emb_reshape&lt;/div&gt;&lt;/div&gt;&lt;/div&gt;&lt;/div&gt;" style="rounded=0;whiteSpace=wrap;html=1;" vertex="1" parent="1">
          <mxGeometry x="-843" y="497.5" width="145" height="35" as="geometry" />
        </mxCell>
        <mxCell id="eApFAiqovPUqgppiBiww-55" value="" style="edgeStyle=orthogonalEdgeStyle;shape=connector;rounded=0;orthogonalLoop=1;jettySize=auto;html=1;strokeColor=default;align=center;verticalAlign=middle;fontFamily=Helvetica;fontSize=11;fontColor=default;labelBackgroundColor=default;endArrow=classic;" edge="1" parent="1" source="eApFAiqovPUqgppiBiww-50" target="eApFAiqovPUqgppiBiww-54">
          <mxGeometry relative="1" as="geometry" />
        </mxCell>
        <mxCell id="eApFAiqovPUqgppiBiww-56" value="&lt;div style=&quot;font-family: &amp;quot;Fira Code&amp;quot;, Menlo, Monaco, &amp;quot;Courier New&amp;quot;, monospace; line-height: 21px; white-space-collapse: preserve;&quot;&gt;&lt;font style=&quot;font-size: 11px;&quot;&gt;pool2d()&lt;/font&gt;&lt;/div&gt;" style="edgeLabel;html=1;align=center;verticalAlign=middle;resizable=0;points=[];fontFamily=Helvetica;fontSize=11;fontColor=default;labelBackgroundColor=default;" vertex="1" connectable="0" parent="eApFAiqovPUqgppiBiww-55">
          <mxGeometry x="0.2684" relative="1" as="geometry">
            <mxPoint x="-32" y="-3" as="offset" />
          </mxGeometry>
        </mxCell>
        <mxCell id="eApFAiqovPUqgppiBiww-50" value="&lt;div style=&quot;background-color: rgb(255, 255, 255); font-family: &amp;quot;Fira Code&amp;quot;, Menlo, Monaco, &amp;quot;Courier New&amp;quot;, monospace; font-size: 14px; line-height: 21px; white-space: pre;&quot;&gt;&lt;div style=&quot;line-height: 21px;&quot;&gt;&lt;div style=&quot;line-height: 21px;&quot;&gt;&lt;div style=&quot;line-height: 21px;&quot;&gt;&lt;div style=&quot;line-height: 21px;&quot;&gt;seeds_pool_shape&lt;/div&gt;&lt;/div&gt;&lt;/div&gt;&lt;/div&gt;&lt;/div&gt;" style="rounded=0;whiteSpace=wrap;html=1;" vertex="1" parent="1">
          <mxGeometry x="99.5" y="790" width="145" height="35" as="geometry" />
        </mxCell>
        <mxCell id="eApFAiqovPUqgppiBiww-54" value="&lt;div style=&quot;background-color: rgb(255, 255, 255); font-family: &amp;quot;Fira Code&amp;quot;, Menlo, Monaco, &amp;quot;Courier New&amp;quot;, monospace; font-size: 14px; line-height: 21px; white-space: pre;&quot;&gt;&lt;div style=&quot;line-height: 21px;&quot;&gt;&lt;div style=&quot;line-height: 21px;&quot;&gt;&lt;div style=&quot;line-height: 21px;&quot;&gt;&lt;div style=&quot;line-height: 21px;&quot;&gt;&lt;div style=&quot;line-height: 21px;&quot;&gt;seeds_emb_avg&lt;/div&gt;&lt;/div&gt;&lt;/div&gt;&lt;/div&gt;&lt;/div&gt;&lt;/div&gt;" style="rounded=0;whiteSpace=wrap;html=1;" vertex="1" parent="1">
          <mxGeometry x="99.5" y="860" width="145" height="35" as="geometry" />
        </mxCell>
      </root>
    </mxGraphModel>
  </diagram>
</mxfile>
